<?xml version="1.0" encoding="UTF-8" standalone="no"?>
<?xml-stylesheet href="styles.css" type="text/css"?>
<!DOCTYPE svg PUBLIC "-//W3C//DTD SVG 1.1//EN"
 "http://www.w3.org/Graphics/SVG/1.1/DTD/svg11.dtd">
<!-- Generated by graphviz version 14.1.2 (20260124.0452)
 -->
<!-- Title: FirFilter Pages: 1 -->
<svg width="1448pt" height="314pt"
 viewBox="0.00 0.00 1448.00 314.00" xmlns="http://www.w3.org/2000/svg" xmlns:xlink="http://www.w3.org/1999/xlink">
<g id="graph0" class="graph" transform="scale(1 1) rotate(0) translate(4 310)">
<title>FirFilter</title>
<polygon fill="white" stroke="none" points="-4,4 -4,-310 1444,-310 1444,4 -4,4"/>
<g id="clust1" class="cluster">
<title>cluster_FirFilter</title>
<polygon fill="#fff8dc" stroke="black" points="8,-8 8,-298 1432,-298 1432,-8 8,-8"/>
<text xml:space="preserve" text-anchor="middle" x="720" y="-280.7" font-family="Times New Roman,serif" font-size="14.00">FirFilter</text>
</g>
<!-- cluster_FirFilter_clock -->
<g id="node1" class="node">
<title>cluster_FirFilter_clock</title>
<polygon fill="#cccccc" stroke="black" points="70,-98 16,-98 16,-62 70,-62 70,-98"/>
<text xml:space="preserve" text-anchor="middle" x="43" y="-74.95" font-family="Times New Roman,serif" font-size="14.00">clock</text>
</g>
<!-- cluster_FirFilter_reset -->
<g id="node2" class="node">
<title>cluster_FirFilter_reset</title>
<polygon fill="#cccccc" stroke="black" points="70,-165 16,-165 16,-129 70,-129 70,-165"/>
<text xml:space="preserve" text-anchor="middle" x="43" y="-141.95" font-family="Times New Roman,serif" font-size="14.00">reset</text>
</g>
<!-- cluster_FirFilter_io_in -->
<g id="node3" class="node">
<title>cluster_FirFilter_io_in</title>
<polygon fill="#cccccc" stroke="black" points="70,-225 16,-225 16,-189 70,-189 70,-225"/>
<text xml:space="preserve" text-anchor="middle" x="43" y="-201.95" font-family="Times New Roman,serif" font-size="14.00">io_in</text>
</g>
<!-- struct_cluster_FirFilter_zs_0 -->
<g id="node5" class="node">
<title>struct_cluster_FirFilter_zs_0</title>
<polygon fill="#ffe4b5" stroke="none" points="114,-193.75 114,-220.25 185.25,-220.25 185.25,-193.75 114,-193.75"/>
<polygon fill="none" stroke="black" points="114,-193.75 114,-220.25 132.25,-220.25 132.25,-193.75 114,-193.75"/>
<text xml:space="preserve" text-anchor="start" x="119" y="-201.95" font-family="Times New Roman,serif" font-size="14.00">●</text>
<polygon fill="none" stroke="black" points="132.25,-193.75 132.25,-220.25 167,-220.25 167,-193.75 132.25,-193.75"/>
<text xml:space="preserve" text-anchor="start" x="137.25" y="-201.95" font-family="Times New Roman,serif" font-size="14.00">zs_0</text>
<polygon fill="none" stroke="black" points="167,-193.75 167,-220.25 185.25,-220.25 185.25,-193.75 167,-193.75"/>
<text xml:space="preserve" text-anchor="start" x="172" y="-201.95" font-family="Times New Roman,serif" font-size="14.00">●</text>
</g>
<!-- cluster_FirFilter_io_in&#45;&gt;struct_cluster_FirFilter_zs_0 -->
<g id="edge3" class="edge">
<title>cluster_FirFilter_io_in&#45;&gt;struct_cluster_FirFilter_zs_0:in</title>
<path fill="none" stroke="black" d="M70.21,-207C79.78,-207 90.93,-207 101.82,-207"/>
<polygon fill="black" stroke="black" points="101.49,-210.5 111.49,-207 101.49,-203.5 101.49,-210.5"/>
</g>
<!-- cluster_FirFilter_io_out -->
<g id="node4" class="node">
<title>cluster_FirFilter_io_out</title>
<polygon fill="#e0ffff" stroke="black" points="1424,-110 1370,-110 1370,-74 1424,-74 1424,-110"/>
<text xml:space="preserve" text-anchor="middle" x="1397" y="-86.95" font-family="Times New Roman,serif" font-size="14.00">io_out</text>
</g>
<!-- struct_cluster_FirFilter_zs_1 -->
<g id="node6" class="node">
<title>struct_cluster_FirFilter_zs_1</title>
<polygon fill="#ffe4b5" stroke="none" points="239.5,-154.75 239.5,-181.25 310.75,-181.25 310.75,-154.75 239.5,-154.75"/>
<polygon fill="none" stroke="black" points="239.5,-154.75 239.5,-181.25 257.75,-181.25 257.75,-154.75 239.5,-154.75"/>
<text xml:space="preserve" text-anchor="start" x="244.5" y="-162.95" font-family="Times New Roman,serif" font-size="14.00">●</text>
<polygon fill="none" stroke="black" points="257.75,-154.75 257.75,-181.25 292.5,-181.25 292.5,-154.75 257.75,-154.75"/>
<text xml:space="preserve" text-anchor="start" x="262.75" y="-162.95" font-family="Times New Roman,serif" font-size="14.00">zs_1</text>
<polygon fill="none" stroke="black" points="292.5,-154.75 292.5,-181.25 310.75,-181.25 310.75,-154.75 292.5,-154.75"/>
<text xml:space="preserve" text-anchor="start" x="297.5" y="-162.95" font-family="Times New Roman,serif" font-size="14.00">●</text>
</g>
<!-- struct_cluster_FirFilter_zs_0&#45;&gt;struct_cluster_FirFilter_zs_1 -->
<g id="edge20" class="edge">
<title>struct_cluster_FirFilter_zs_0:out&#45;&gt;struct_cluster_FirFilter_zs_1:in</title>
<path fill="none" stroke="black" d="M186.25,-207C210.93,-207 210.45,-178.72 227.66,-170.32"/>
<polygon fill="black" stroke="black" points="227.98,-173.84 237.02,-168.32 226.51,-166.99 227.98,-173.84"/>
</g>
<!-- op_mul_18 -->
<g id="node11" class="node">
<title>op_mul_18</title>
<polygon fill="#d8bfd8" stroke="none" points="237.25,-208.5 237.25,-261.5 313,-261.5 313,-208.5 237.25,-208.5"/>
<polygon fill="none" stroke="black" points="237.25,-235 237.25,-261.5 255.5,-261.5 255.5,-235 237.25,-235"/>
<text xml:space="preserve" text-anchor="start" x="242.25" y="-243.2" font-family="Times New Roman,serif" font-size="14.00">●</text>
<polygon fill="none" stroke="black" points="255.5,-208.5 255.5,-261.5 294.75,-261.5 294.75,-208.5 255.5,-208.5"/>
<text xml:space="preserve" text-anchor="start" x="260.5" y="-229.95" font-family="Times New Roman,serif" font-size="14.00"> mul </text>
<polygon fill="none" stroke="black" points="294.75,-208.5 294.75,-261.5 313,-261.5 313,-208.5 294.75,-208.5"/>
<text xml:space="preserve" text-anchor="start" x="299.75" y="-229.95" font-family="Times New Roman,serif" font-size="14.00">●</text>
<polygon fill="none" stroke="black" points="237.25,-208.5 237.25,-235 255.5,-235 255.5,-208.5 237.25,-208.5"/>
<text xml:space="preserve" text-anchor="start" x="243" y="-216.7" font-family="Times New Roman,serif" font-size="14.00">1</text>
</g>
<!-- struct_cluster_FirFilter_zs_0&#45;&gt;op_mul_18 -->
<g id="edge8" class="edge">
<title>struct_cluster_FirFilter_zs_0:out&#45;&gt;op_mul_18:in1</title>
<path fill="none" stroke="black" d="M186.25,-207C210.56,-207 208.93,-236.37 225.14,-245.54"/>
<polygon fill="black" stroke="black" points="224.24,-248.93 234.78,-247.89 225.89,-242.13 224.24,-248.93"/>
</g>
<!-- struct_cluster_FirFilter_zs_2 -->
<g id="node7" class="node">
<title>struct_cluster_FirFilter_zs_2</title>
<polygon fill="#ffe4b5" stroke="none" points="367.25,-99.75 367.25,-126.25 438.5,-126.25 438.5,-99.75 367.25,-99.75"/>
<polygon fill="none" stroke="black" points="367.25,-99.75 367.25,-126.25 385.5,-126.25 385.5,-99.75 367.25,-99.75"/>
<text xml:space="preserve" text-anchor="start" x="372.25" y="-107.95" font-family="Times New Roman,serif" font-size="14.00">●</text>
<polygon fill="none" stroke="black" points="385.5,-99.75 385.5,-126.25 420.25,-126.25 420.25,-99.75 385.5,-99.75"/>
<text xml:space="preserve" text-anchor="start" x="390.5" y="-107.95" font-family="Times New Roman,serif" font-size="14.00">zs_2</text>
<polygon fill="none" stroke="black" points="420.25,-99.75 420.25,-126.25 438.5,-126.25 438.5,-99.75 420.25,-99.75"/>
<text xml:space="preserve" text-anchor="start" x="425.25" y="-107.95" font-family="Times New Roman,serif" font-size="14.00">●</text>
</g>
<!-- struct_cluster_FirFilter_zs_1&#45;&gt;struct_cluster_FirFilter_zs_2 -->
<g id="edge2" class="edge">
<title>struct_cluster_FirFilter_zs_1:out&#45;&gt;struct_cluster_FirFilter_zs_2:in</title>
<path fill="none" stroke="black" d="M311.75,-168C341.73,-168 334.72,-126.27 355.16,-115.51"/>
<polygon fill="black" stroke="black" points="355.79,-118.95 364.77,-113.33 354.25,-112.12 355.79,-118.95"/>
</g>
<!-- op_mul_19 -->
<g id="node13" class="node">
<title>op_mul_19</title>
<polygon fill="#d8bfd8" stroke="none" points="365,-153.5 365,-206.5 440.75,-206.5 440.75,-153.5 365,-153.5"/>
<polygon fill="none" stroke="black" points="365,-180 365,-206.5 383.25,-206.5 383.25,-180 365,-180"/>
<text xml:space="preserve" text-anchor="start" x="370" y="-188.2" font-family="Times New Roman,serif" font-size="14.00">●</text>
<polygon fill="none" stroke="black" points="383.25,-153.5 383.25,-206.5 422.5,-206.5 422.5,-153.5 383.25,-153.5"/>
<text xml:space="preserve" text-anchor="start" x="388.25" y="-174.95" font-family="Times New Roman,serif" font-size="14.00"> mul </text>
<polygon fill="none" stroke="black" points="422.5,-153.5 422.5,-206.5 440.75,-206.5 440.75,-153.5 422.5,-153.5"/>
<text xml:space="preserve" text-anchor="start" x="427.5" y="-174.95" font-family="Times New Roman,serif" font-size="14.00">●</text>
<polygon fill="none" stroke="black" points="365,-153.5 365,-180 383.25,-180 383.25,-153.5 365,-153.5"/>
<text xml:space="preserve" text-anchor="start" x="370.75" y="-161.7" font-family="Times New Roman,serif" font-size="14.00">2</text>
</g>
<!-- struct_cluster_FirFilter_zs_1&#45;&gt;op_mul_19 -->
<g id="edge22" class="edge">
<title>struct_cluster_FirFilter_zs_1:out&#45;&gt;op_mul_19:in1</title>
<path fill="none" stroke="black" d="M311.75,-168C333.11,-168 337.24,-185.32 352.67,-191.27"/>
<polygon fill="black" stroke="black" points="352.06,-194.71 362.51,-192.99 353.26,-187.82 352.06,-194.71"/>
</g>
<!-- struct_cluster_FirFilter_zs_3 -->
<g id="node8" class="node">
<title>struct_cluster_FirFilter_zs_3</title>
<polygon fill="#ffe4b5" stroke="none" points="495,-45.75 495,-72.25 566.25,-72.25 566.25,-45.75 495,-45.75"/>
<polygon fill="none" stroke="black" points="495,-45.75 495,-72.25 513.25,-72.25 513.25,-45.75 495,-45.75"/>
<text xml:space="preserve" text-anchor="start" x="500" y="-53.95" font-family="Times New Roman,serif" font-size="14.00">●</text>
<polygon fill="none" stroke="black" points="513.25,-45.75 513.25,-72.25 548,-72.25 548,-45.75 513.25,-45.75"/>
<text xml:space="preserve" text-anchor="start" x="518.25" y="-53.95" font-family="Times New Roman,serif" font-size="14.00">zs_3</text>
<polygon fill="none" stroke="black" points="548,-45.75 548,-72.25 566.25,-72.25 566.25,-45.75 548,-45.75"/>
<text xml:space="preserve" text-anchor="start" x="553" y="-53.95" font-family="Times New Roman,serif" font-size="14.00">●</text>
</g>
<!-- struct_cluster_FirFilter_zs_2&#45;&gt;struct_cluster_FirFilter_zs_3 -->
<g id="edge18" class="edge">
<title>struct_cluster_FirFilter_zs_2:out&#45;&gt;struct_cluster_FirFilter_zs_3:in</title>
<path fill="none" stroke="black" d="M439.5,-113C469.2,-113 462.64,-72.02 482.99,-61.46"/>
<polygon fill="black" stroke="black" points="483.53,-64.93 492.52,-59.33 482,-58.1 483.53,-64.93"/>
</g>
<!-- op_mul_20 -->
<g id="node15" class="node">
<title>op_mul_20</title>
<polygon fill="#d8bfd8" stroke="none" points="492.75,-99.5 492.75,-152.5 568.5,-152.5 568.5,-99.5 492.75,-99.5"/>
<polygon fill="none" stroke="black" points="492.75,-126 492.75,-152.5 511,-152.5 511,-126 492.75,-126"/>
<text xml:space="preserve" text-anchor="start" x="497.75" y="-134.2" font-family="Times New Roman,serif" font-size="14.00">●</text>
<polygon fill="none" stroke="black" points="511,-99.5 511,-152.5 550.25,-152.5 550.25,-99.5 511,-99.5"/>
<text xml:space="preserve" text-anchor="start" x="516" y="-120.95" font-family="Times New Roman,serif" font-size="14.00"> mul </text>
<polygon fill="none" stroke="black" points="550.25,-99.5 550.25,-152.5 568.5,-152.5 568.5,-99.5 550.25,-99.5"/>
<text xml:space="preserve" text-anchor="start" x="555.25" y="-120.95" font-family="Times New Roman,serif" font-size="14.00">●</text>
<polygon fill="none" stroke="black" points="492.75,-99.5 492.75,-126 511,-126 511,-99.5 492.75,-99.5"/>
<text xml:space="preserve" text-anchor="start" x="498.5" y="-107.7" font-family="Times New Roman,serif" font-size="14.00">3</text>
</g>
<!-- struct_cluster_FirFilter_zs_2&#45;&gt;op_mul_20 -->
<g id="edge9" class="edge">
<title>struct_cluster_FirFilter_zs_2:out&#45;&gt;op_mul_20:in1</title>
<path fill="none" stroke="black" d="M439.5,-113C461.22,-113 464.98,-131.34 480.81,-137.36"/>
<polygon fill="black" stroke="black" points="479.81,-140.74 490.26,-138.99 481,-133.84 479.81,-140.74"/>
</g>
<!-- struct_cluster_FirFilter_zs_4 -->
<g id="node9" class="node">
<title>struct_cluster_FirFilter_zs_4</title>
<polygon fill="#ffe4b5" stroke="none" points="622.75,-22.75 622.75,-49.25 694,-49.25 694,-22.75 622.75,-22.75"/>
<polygon fill="none" stroke="black" points="622.75,-22.75 622.75,-49.25 641,-49.25 641,-22.75 622.75,-22.75"/>
<text xml:space="preserve" text-anchor="start" x="627.75" y="-30.95" font-family="Times New Roman,serif" font-size="14.00">●</text>
<polygon fill="none" stroke="black" points="641,-22.75 641,-49.25 675.75,-49.25 675.75,-22.75 641,-22.75"/>
<text xml:space="preserve" text-anchor="start" x="646" y="-30.95" font-family="Times New Roman,serif" font-size="14.00">zs_4</text>
<polygon fill="none" stroke="black" points="675.75,-22.75 675.75,-49.25 694,-49.25 694,-22.75 675.75,-22.75"/>
<text xml:space="preserve" text-anchor="start" x="680.75" y="-30.95" font-family="Times New Roman,serif" font-size="14.00">●</text>
</g>
<!-- struct_cluster_FirFilter_zs_3&#45;&gt;struct_cluster_FirFilter_zs_4 -->
<g id="edge1" class="edge">
<title>struct_cluster_FirFilter_zs_3:out&#45;&gt;struct_cluster_FirFilter_zs_4:in</title>
<path fill="none" stroke="black" d="M567.25,-59C589.23,-59 594.17,-42.93 610.56,-37.65"/>
<polygon fill="black" stroke="black" points="610.87,-41.15 620.25,-36.22 609.85,-34.22 610.87,-41.15"/>
</g>
<!-- op_mul_21 -->
<g id="node17" class="node">
<title>op_mul_21</title>
<polygon fill="#d8bfd8" stroke="none" points="620.5,-76.5 620.5,-129.5 696.25,-129.5 696.25,-76.5 620.5,-76.5"/>
<polygon fill="none" stroke="black" points="620.5,-103 620.5,-129.5 638.75,-129.5 638.75,-103 620.5,-103"/>
<text xml:space="preserve" text-anchor="start" x="625.5" y="-111.2" font-family="Times New Roman,serif" font-size="14.00">●</text>
<polygon fill="none" stroke="black" points="638.75,-76.5 638.75,-129.5 678,-129.5 678,-76.5 638.75,-76.5"/>
<text xml:space="preserve" text-anchor="start" x="643.75" y="-97.95" font-family="Times New Roman,serif" font-size="14.00"> mul </text>
<polygon fill="none" stroke="black" points="678,-76.5 678,-129.5 696.25,-129.5 696.25,-76.5 678,-76.5"/>
<text xml:space="preserve" text-anchor="start" x="683" y="-97.95" font-family="Times New Roman,serif" font-size="14.00">●</text>
<polygon fill="none" stroke="black" points="620.5,-76.5 620.5,-103 638.75,-103 638.75,-76.5 620.5,-76.5"/>
<text xml:space="preserve" text-anchor="start" x="626.25" y="-84.7" font-family="Times New Roman,serif" font-size="14.00">2</text>
</g>
<!-- struct_cluster_FirFilter_zs_3&#45;&gt;op_mul_21 -->
<g id="edge25" class="edge">
<title>struct_cluster_FirFilter_zs_3:out&#45;&gt;op_mul_21:in1</title>
<path fill="none" stroke="black" d="M567.25,-59C597.26,-59 588.49,-102.44 608.51,-113.64"/>
<polygon fill="black" stroke="black" points="607.49,-117 618.03,-115.9 609.11,-110.19 607.49,-117"/>
</g>
<!-- op_mul_24 -->
<g id="node22" class="node">
<title>op_mul_24</title>
<polygon fill="#d8bfd8" stroke="none" points="748.25,-20.5 748.25,-73.5 824,-73.5 824,-20.5 748.25,-20.5"/>
<polygon fill="none" stroke="black" points="748.25,-47 748.25,-73.5 766.5,-73.5 766.5,-47 748.25,-47"/>
<text xml:space="preserve" text-anchor="start" x="753.25" y="-55.2" font-family="Times New Roman,serif" font-size="14.00">●</text>
<polygon fill="none" stroke="black" points="766.5,-20.5 766.5,-73.5 805.75,-73.5 805.75,-20.5 766.5,-20.5"/>
<text xml:space="preserve" text-anchor="start" x="771.5" y="-41.95" font-family="Times New Roman,serif" font-size="14.00"> mul </text>
<polygon fill="none" stroke="black" points="805.75,-20.5 805.75,-73.5 824,-73.5 824,-20.5 805.75,-20.5"/>
<text xml:space="preserve" text-anchor="start" x="810.75" y="-41.95" font-family="Times New Roman,serif" font-size="14.00">●</text>
<polygon fill="none" stroke="black" points="748.25,-20.5 748.25,-47 766.5,-47 766.5,-20.5 748.25,-20.5"/>
<text xml:space="preserve" text-anchor="start" x="754" y="-28.7" font-family="Times New Roman,serif" font-size="14.00">1</text>
</g>
<!-- struct_cluster_FirFilter_zs_4&#45;&gt;op_mul_24 -->
<g id="edge12" class="edge">
<title>struct_cluster_FirFilter_zs_4:out&#45;&gt;op_mul_24:in1</title>
<path fill="none" stroke="black" d="M695,-36C716.2,-36 720.56,-52.63 735.98,-58.35"/>
<polygon fill="black" stroke="black" points="735.31,-61.78 745.76,-60 736.48,-54.88 735.31,-61.78"/>
</g>
<!-- cluster_FirFilter__T -->
<g id="node10" class="node">
<title>cluster_FirFilter__T</title>
<polygon fill="none" stroke="black" points="429.88,-265 375.88,-265 375.88,-229 429.88,-229 429.88,-265"/>
<text xml:space="preserve" text-anchor="middle" x="402.88" y="-241.95" font-family="Times New Roman,serif" font-size="14.00">_T</text>
</g>
<!-- op_pad_22 -->
<g id="node19" class="node">
<title>op_pad_22</title>
<polygon fill="#d8bfd8" stroke="none" points="493.88,-233.75 493.88,-260.25 567.38,-260.25 567.38,-233.75 493.88,-233.75"/>
<polygon fill="none" stroke="black" points="493.88,-233.75 493.88,-260.25 512.13,-260.25 512.13,-233.75 493.88,-233.75"/>
<text xml:space="preserve" text-anchor="start" x="498.88" y="-241.95" font-family="Times New Roman,serif" font-size="14.00">●</text>
<polygon fill="none" stroke="black" points="512.13,-233.75 512.13,-260.25 549.13,-260.25 549.13,-233.75 512.13,-233.75"/>
<text xml:space="preserve" text-anchor="start" x="517.13" y="-241.95" font-family="Times New Roman,serif" font-size="14.00"> pad </text>
<polygon fill="none" stroke="black" points="549.13,-233.75 549.13,-260.25 567.38,-260.25 567.38,-233.75 549.13,-233.75"/>
<text xml:space="preserve" text-anchor="start" x="554.13" y="-241.95" font-family="Times New Roman,serif" font-size="14.00">●</text>
</g>
<!-- cluster_FirFilter__T&#45;&gt;op_pad_22 -->
<g id="edge13" class="edge">
<title>cluster_FirFilter__T&#45;&gt;op_pad_22:in1</title>
<path fill="none" stroke="black" d="M430.36,-247C444.95,-247 463.68,-247 481.58,-247"/>
<polygon fill="black" stroke="black" points="481.36,-250.5 491.36,-247 481.36,-243.5 481.36,-250.5"/>
</g>
<!-- op_mul_18&#45;&gt;cluster_FirFilter__T -->
<g id="edge23" class="edge">
<title>op_mul_18:out&#45;&gt;cluster_FirFilter__T</title>
<path fill="none" stroke="black" d="M314,-235C330.56,-235 348.73,-237.12 364.22,-239.58"/>
<polygon fill="black" stroke="black" points="363.53,-243.01 373.98,-241.24 364.71,-236.11 363.53,-243.01"/>
</g>
<!-- cluster_FirFilter_products_1 -->
<g id="node12" class="node">
<title>cluster_FirFilter_products_1</title>
<polygon fill="none" stroke="black" points="568.63,-211 492.63,-211 492.63,-175 568.63,-175 568.63,-211"/>
<text xml:space="preserve" text-anchor="middle" x="530.63" y="-187.95" font-family="Times New Roman,serif" font-size="14.00">products_1</text>
</g>
<!-- op_add_28 -->
<g id="node26" class="node">
<title>op_add_28</title>
<polygon fill="#d8bfd8" stroke="none" points="749.38,-208.5 749.38,-261.5 822.88,-261.5 822.88,-208.5 749.38,-208.5"/>
<polygon fill="none" stroke="black" points="749.38,-235 749.38,-261.5 767.63,-261.5 767.63,-235 749.38,-235"/>
<text xml:space="preserve" text-anchor="start" x="754.38" y="-243.2" font-family="Times New Roman,serif" font-size="14.00">●</text>
<polygon fill="none" stroke="black" points="767.63,-208.5 767.63,-261.5 804.63,-261.5 804.63,-208.5 767.63,-208.5"/>
<text xml:space="preserve" text-anchor="start" x="772.63" y="-229.95" font-family="Times New Roman,serif" font-size="14.00"> add </text>
<polygon fill="none" stroke="black" points="804.63,-208.5 804.63,-261.5 822.88,-261.5 822.88,-208.5 804.63,-208.5"/>
<text xml:space="preserve" text-anchor="start" x="809.63" y="-229.95" font-family="Times New Roman,serif" font-size="14.00">●</text>
<polygon fill="none" stroke="black" points="749.38,-208.5 749.38,-235 767.63,-235 767.63,-208.5 749.38,-208.5"/>
<text xml:space="preserve" text-anchor="start" x="754.38" y="-216.7" font-family="Times New Roman,serif" font-size="14.00">●</text>
</g>
<!-- cluster_FirFilter_products_1&#45;&gt;op_add_28 -->
<g id="edge4" class="edge">
<title>cluster_FirFilter_products_1&#45;&gt;op_add_28:in2</title>
<path fill="none" stroke="black" d="M569,-199.17C616.43,-206.81 696.9,-219.1 737.07,-221.38"/>
<polygon fill="black" stroke="black" points="736.75,-224.87 746.86,-221.7 736.98,-217.87 736.75,-224.87"/>
</g>
<!-- op_mul_19&#45;&gt;cluster_FirFilter_products_1 -->
<g id="edge21" class="edge">
<title>op_mul_19:out&#45;&gt;cluster_FirFilter_products_1</title>
<path fill="none" stroke="black" d="M441.75,-180C454.5,-180 468.18,-181.36 480.87,-183.19"/>
<polygon fill="black" stroke="black" points="480.25,-186.64 490.68,-184.75 481.35,-179.73 480.25,-186.64"/>
</g>
<!-- cluster_FirFilter_products_2 -->
<g id="node14" class="node">
<title>cluster_FirFilter_products_2</title>
<polygon fill="none" stroke="black" points="696.38,-188 620.38,-188 620.38,-152 696.38,-152 696.38,-188"/>
<text xml:space="preserve" text-anchor="middle" x="658.38" y="-164.95" font-family="Times New Roman,serif" font-size="14.00">products_2</text>
</g>
<!-- op_pad_29 -->
<g id="node27" class="node">
<title>op_pad_29</title>
<polygon fill="#d8bfd8" stroke="none" points="749.38,-154.75 749.38,-181.25 822.88,-181.25 822.88,-154.75 749.38,-154.75"/>
<polygon fill="none" stroke="black" points="749.38,-154.75 749.38,-181.25 767.63,-181.25 767.63,-154.75 749.38,-154.75"/>
<text xml:space="preserve" text-anchor="start" x="754.38" y="-162.95" font-family="Times New Roman,serif" font-size="14.00">●</text>
<polygon fill="none" stroke="black" points="767.63,-154.75 767.63,-181.25 804.63,-181.25 804.63,-154.75 767.63,-154.75"/>
<text xml:space="preserve" text-anchor="start" x="772.63" y="-162.95" font-family="Times New Roman,serif" font-size="14.00"> pad </text>
<polygon fill="none" stroke="black" points="804.63,-154.75 804.63,-181.25 822.88,-181.25 822.88,-154.75 804.63,-154.75"/>
<text xml:space="preserve" text-anchor="start" x="809.63" y="-162.95" font-family="Times New Roman,serif" font-size="14.00">●</text>
</g>
<!-- cluster_FirFilter_products_2&#45;&gt;op_pad_29 -->
<g id="edge14" class="edge">
<title>cluster_FirFilter_products_2&#45;&gt;op_pad_29:in1</title>
<path fill="none" stroke="black" d="M696.61,-168.79C709.06,-168.46 723.28,-168.16 737.01,-168.05"/>
<polygon fill="black" stroke="black" points="736.88,-171.55 746.86,-168.01 736.85,-164.55 736.88,-171.55"/>
</g>
<!-- op_mul_20&#45;&gt;cluster_FirFilter_products_2 -->
<g id="edge6" class="edge">
<title>op_mul_20:out&#45;&gt;cluster_FirFilter_products_2</title>
<path fill="none" stroke="black" d="M569.5,-126C574.66,-126 594.55,-135.82 614.1,-146.18"/>
<polygon fill="black" stroke="black" points="612.42,-149.24 622.89,-150.88 615.72,-143.07 612.42,-149.24"/>
</g>
<!-- cluster_FirFilter_products_3 -->
<g id="node16" class="node">
<title>cluster_FirFilter_products_3</title>
<polygon fill="none" stroke="black" points="824.13,-132 748.13,-132 748.13,-96 824.13,-96 824.13,-132"/>
<text xml:space="preserve" text-anchor="middle" x="786.13" y="-108.95" font-family="Times New Roman,serif" font-size="14.00">products_3</text>
</g>
<!-- op_pad_30 -->
<g id="node28" class="node">
<title>op_pad_30</title>
<polygon fill="#d8bfd8" stroke="none" points="876,-100.75 876,-127.25 949.5,-127.25 949.5,-100.75 876,-100.75"/>
<polygon fill="none" stroke="black" points="876,-100.75 876,-127.25 894.25,-127.25 894.25,-100.75 876,-100.75"/>
<text xml:space="preserve" text-anchor="start" x="881" y="-108.95" font-family="Times New Roman,serif" font-size="14.00">●</text>
<polygon fill="none" stroke="black" points="894.25,-100.75 894.25,-127.25 931.25,-127.25 931.25,-100.75 894.25,-100.75"/>
<text xml:space="preserve" text-anchor="start" x="899.25" y="-108.95" font-family="Times New Roman,serif" font-size="14.00"> pad </text>
<polygon fill="none" stroke="black" points="931.25,-100.75 931.25,-127.25 949.5,-127.25 949.5,-100.75 931.25,-100.75"/>
<text xml:space="preserve" text-anchor="start" x="936.25" y="-108.95" font-family="Times New Roman,serif" font-size="14.00">●</text>
</g>
<!-- cluster_FirFilter_products_3&#45;&gt;op_pad_30 -->
<g id="edge7" class="edge">
<title>cluster_FirFilter_products_3&#45;&gt;op_pad_30:in1</title>
<path fill="none" stroke="black" d="M824.32,-114C836.55,-114 850.45,-114 863.88,-114"/>
<polygon fill="black" stroke="black" points="863.49,-117.5 873.49,-114 863.49,-110.5 863.49,-117.5"/>
</g>
<!-- op_mul_21&#45;&gt;cluster_FirFilter_products_3 -->
<g id="edge29" class="edge">
<title>op_mul_21:out&#45;&gt;cluster_FirFilter_products_3</title>
<path fill="none" stroke="black" d="M697.25,-103C710.08,-103 723.88,-104.17 736.66,-105.74"/>
<polygon fill="black" stroke="black" points="736.18,-109.21 746.55,-107.08 737.11,-102.27 736.18,-109.21"/>
</g>
<!-- cluster_FirFilter_products_0 -->
<g id="node18" class="node">
<title>cluster_FirFilter_products_0</title>
<polygon fill="none" stroke="black" points="696.38,-265 620.38,-265 620.38,-229 696.38,-229 696.38,-265"/>
<text xml:space="preserve" text-anchor="middle" x="658.38" y="-241.95" font-family="Times New Roman,serif" font-size="14.00">products_0</text>
</g>
<!-- cluster_FirFilter_products_0&#45;&gt;op_add_28 -->
<g id="edge15" class="edge">
<title>cluster_FirFilter_products_0&#45;&gt;op_add_28:in1</title>
<path fill="none" stroke="black" d="M696.61,-247.76C709.07,-247.96 723.28,-248.15 737.01,-248.22"/>
<polygon fill="black" stroke="black" points="736.85,-251.72 746.86,-248.25 736.87,-244.72 736.85,-251.72"/>
</g>
<!-- op_pad_22&#45;&gt;cluster_FirFilter_products_0 -->
<g id="edge30" class="edge">
<title>op_pad_22:out&#45;&gt;cluster_FirFilter_products_0</title>
<path fill="none" stroke="black" d="M568.38,-247C581.52,-247 595.76,-247 608.91,-247"/>
<polygon fill="black" stroke="black" points="608.62,-250.5 618.62,-247 608.62,-243.5 608.62,-250.5"/>
</g>
<!-- cluster_FirFilter_products_4 -->
<g id="node20" class="node">
<title>cluster_FirFilter_products_4</title>
<polygon fill="none" stroke="black" points="1076.25,-74 1000.25,-74 1000.25,-38 1076.25,-38 1076.25,-74"/>
<text xml:space="preserve" text-anchor="middle" x="1038.25" y="-50.95" font-family="Times New Roman,serif" font-size="14.00">products_4</text>
</g>
<!-- op_pad_31 -->
<g id="node29" class="node">
<title>op_pad_31</title>
<polygon fill="#d8bfd8" stroke="none" points="1127,-60.75 1127,-87.25 1200.5,-87.25 1200.5,-60.75 1127,-60.75"/>
<polygon fill="none" stroke="black" points="1127,-60.75 1127,-87.25 1145.25,-87.25 1145.25,-60.75 1127,-60.75"/>
<text xml:space="preserve" text-anchor="start" x="1132" y="-68.95" font-family="Times New Roman,serif" font-size="14.00">●</text>
<polygon fill="none" stroke="black" points="1145.25,-60.75 1145.25,-87.25 1182.25,-87.25 1182.25,-60.75 1145.25,-60.75"/>
<text xml:space="preserve" text-anchor="start" x="1150.25" y="-68.95" font-family="Times New Roman,serif" font-size="14.00"> pad </text>
<polygon fill="none" stroke="black" points="1182.25,-60.75 1182.25,-87.25 1200.5,-87.25 1200.5,-60.75 1182.25,-60.75"/>
<text xml:space="preserve" text-anchor="start" x="1187.25" y="-68.95" font-family="Times New Roman,serif" font-size="14.00">●</text>
</g>
<!-- cluster_FirFilter_products_4&#45;&gt;op_pad_31 -->
<g id="edge17" class="edge">
<title>cluster_FirFilter_products_4&#45;&gt;op_pad_31:in1</title>
<path fill="none" stroke="black" d="M1076.48,-67.19C1088.24,-70.03 1101.59,-72.55 1114.65,-73.55"/>
<polygon fill="black" stroke="black" points="1114.36,-77.04 1124.49,-73.94 1114.64,-70.04 1114.36,-77.04"/>
</g>
<!-- op_pad_23 -->
<g id="node21" class="node">
<title>op_pad_23</title>
<polygon fill="#d8bfd8" stroke="none" points="876,-36.75 876,-63.25 949.5,-63.25 949.5,-36.75 876,-36.75"/>
<polygon fill="none" stroke="black" points="876,-36.75 876,-63.25 894.25,-63.25 894.25,-36.75 876,-36.75"/>
<text xml:space="preserve" text-anchor="start" x="881" y="-44.95" font-family="Times New Roman,serif" font-size="14.00">●</text>
<polygon fill="none" stroke="black" points="894.25,-36.75 894.25,-63.25 931.25,-63.25 931.25,-36.75 894.25,-36.75"/>
<text xml:space="preserve" text-anchor="start" x="899.25" y="-44.95" font-family="Times New Roman,serif" font-size="14.00"> pad </text>
<polygon fill="none" stroke="black" points="931.25,-36.75 931.25,-63.25 949.5,-63.25 949.5,-36.75 931.25,-36.75"/>
<text xml:space="preserve" text-anchor="start" x="936.25" y="-44.95" font-family="Times New Roman,serif" font-size="14.00">●</text>
</g>
<!-- op_pad_23&#45;&gt;cluster_FirFilter_products_4 -->
<g id="edge24" class="edge">
<title>op_pad_23:out&#45;&gt;cluster_FirFilter_products_4</title>
<path fill="none" stroke="black" d="M950.5,-50C962.98,-50 976.45,-50.63 988.97,-51.47"/>
<polygon fill="black" stroke="black" points="988.4,-54.94 998.63,-52.19 988.92,-47.96 988.4,-54.94"/>
</g>
<!-- op_mul_24&#45;&gt;op_pad_23 -->
<g id="edge27" class="edge">
<title>op_mul_24:out&#45;&gt;op_pad_23:in1</title>
<path fill="none" stroke="black" d="M825,-47C842.91,-47 849.96,-48.94 863.63,-49.7"/>
<polygon fill="black" stroke="black" points="863.4,-53.2 873.49,-49.96 863.58,-46.2 863.4,-53.2"/>
</g>
<!-- op_add_25 -->
<g id="node23" class="node">
<title>op_add_25</title>
<polygon fill="#d8bfd8" stroke="none" points="1252.5,-65.5 1252.5,-118.5 1326,-118.5 1326,-65.5 1252.5,-65.5"/>
<polygon fill="none" stroke="black" points="1252.5,-92 1252.5,-118.5 1270.75,-118.5 1270.75,-92 1252.5,-92"/>
<text xml:space="preserve" text-anchor="start" x="1257.5" y="-100.2" font-family="Times New Roman,serif" font-size="14.00">●</text>
<polygon fill="none" stroke="black" points="1270.75,-65.5 1270.75,-118.5 1307.75,-118.5 1307.75,-65.5 1270.75,-65.5"/>
<text xml:space="preserve" text-anchor="start" x="1275.75" y="-86.95" font-family="Times New Roman,serif" font-size="14.00"> add </text>
<polygon fill="none" stroke="black" points="1307.75,-65.5 1307.75,-118.5 1326,-118.5 1326,-65.5 1307.75,-65.5"/>
<text xml:space="preserve" text-anchor="start" x="1312.75" y="-86.95" font-family="Times New Roman,serif" font-size="14.00">●</text>
<polygon fill="none" stroke="black" points="1252.5,-65.5 1252.5,-92 1270.75,-92 1270.75,-65.5 1252.5,-65.5"/>
<text xml:space="preserve" text-anchor="start" x="1257.5" y="-73.7" font-family="Times New Roman,serif" font-size="14.00">●</text>
</g>
<!-- op_add_25&#45;&gt;cluster_FirFilter_io_out -->
<g id="edge10" class="edge">
<title>op_add_25:out&#45;&gt;cluster_FirFilter_io_out</title>
<path fill="none" stroke="black" d="M1327,-92C1337.16,-92 1348.16,-92 1358.33,-92"/>
<polygon fill="black" stroke="black" points="1358.27,-95.5 1368.27,-92 1358.27,-88.5 1358.27,-95.5"/>
</g>
<!-- op_add_26 -->
<g id="node24" class="node">
<title>op_add_26</title>
<polygon fill="#d8bfd8" stroke="none" points="1001.5,-100.5 1001.5,-153.5 1075,-153.5 1075,-100.5 1001.5,-100.5"/>
<polygon fill="none" stroke="black" points="1001.5,-127 1001.5,-153.5 1019.75,-153.5 1019.75,-127 1001.5,-127"/>
<text xml:space="preserve" text-anchor="start" x="1006.5" y="-135.2" font-family="Times New Roman,serif" font-size="14.00">●</text>
<polygon fill="none" stroke="black" points="1019.75,-100.5 1019.75,-153.5 1056.75,-153.5 1056.75,-100.5 1019.75,-100.5"/>
<text xml:space="preserve" text-anchor="start" x="1024.75" y="-121.95" font-family="Times New Roman,serif" font-size="14.00"> add </text>
<polygon fill="none" stroke="black" points="1056.75,-100.5 1056.75,-153.5 1075,-153.5 1075,-100.5 1056.75,-100.5"/>
<text xml:space="preserve" text-anchor="start" x="1061.75" y="-121.95" font-family="Times New Roman,serif" font-size="14.00">●</text>
<polygon fill="none" stroke="black" points="1001.5,-100.5 1001.5,-127 1019.75,-127 1019.75,-100.5 1001.5,-100.5"/>
<text xml:space="preserve" text-anchor="start" x="1006.5" y="-108.7" font-family="Times New Roman,serif" font-size="14.00">●</text>
</g>
<!-- op_add_26&#45;&gt;op_add_25 -->
<g id="edge19" class="edge">
<title>op_add_26:out&#45;&gt;op_add_25:in1</title>
<path fill="none" stroke="black" d="M1076,-127C1150.76,-127 1170.97,-107.32 1240.4,-105.4"/>
<polygon fill="black" stroke="black" points="1240.04,-108.91 1249.99,-105.27 1239.94,-101.91 1240.04,-108.91"/>
</g>
<!-- op_add_27 -->
<g id="node25" class="node">
<title>op_add_27</title>
<polygon fill="#d8bfd8" stroke="none" points="876,-154.5 876,-207.5 949.5,-207.5 949.5,-154.5 876,-154.5"/>
<polygon fill="none" stroke="black" points="876,-181 876,-207.5 894.25,-207.5 894.25,-181 876,-181"/>
<text xml:space="preserve" text-anchor="start" x="881" y="-189.2" font-family="Times New Roman,serif" font-size="14.00">●</text>
<polygon fill="none" stroke="black" points="894.25,-154.5 894.25,-207.5 931.25,-207.5 931.25,-154.5 894.25,-154.5"/>
<text xml:space="preserve" text-anchor="start" x="899.25" y="-175.95" font-family="Times New Roman,serif" font-size="14.00"> add </text>
<polygon fill="none" stroke="black" points="931.25,-154.5 931.25,-207.5 949.5,-207.5 949.5,-154.5 931.25,-154.5"/>
<text xml:space="preserve" text-anchor="start" x="936.25" y="-175.95" font-family="Times New Roman,serif" font-size="14.00">●</text>
<polygon fill="none" stroke="black" points="876,-154.5 876,-181 894.25,-181 894.25,-154.5 876,-154.5"/>
<text xml:space="preserve" text-anchor="start" x="881" y="-162.7" font-family="Times New Roman,serif" font-size="14.00">●</text>
</g>
<!-- op_add_27&#45;&gt;op_add_26 -->
<g id="edge28" class="edge">
<title>op_add_27:out&#45;&gt;op_add_26:in1</title>
<path fill="none" stroke="black" d="M940.38,-153.5C940.38,-142.54 970.16,-140.64 989.05,-140.31"/>
<polygon fill="black" stroke="black" points="989.01,-143.81 998.99,-140.26 988.97,-136.81 989.01,-143.81"/>
</g>
<!-- op_add_28&#45;&gt;op_add_27 -->
<g id="edge5" class="edge">
<title>op_add_28:out&#45;&gt;op_add_27:in1</title>
<path fill="none" stroke="black" d="M813.75,-207.5C813.75,-196.29 844.39,-194.54 863.62,-194.29"/>
<polygon fill="black" stroke="black" points="863.5,-197.79 873.49,-194.25 863.48,-190.79 863.5,-197.79"/>
</g>
<!-- op_pad_29&#45;&gt;op_add_27 -->
<g id="edge26" class="edge">
<title>op_pad_29:out&#45;&gt;op_add_27:in2</title>
<path fill="none" stroke="black" d="M823.88,-168C842.34,-168 849.55,-167.83 863.79,-167.77"/>
<polygon fill="black" stroke="black" points="863.49,-171.27 873.49,-167.75 863.48,-164.27 863.49,-171.27"/>
</g>
<!-- op_pad_30&#45;&gt;op_add_26 -->
<g id="edge16" class="edge">
<title>op_pad_30:out&#45;&gt;op_add_26:in2</title>
<path fill="none" stroke="black" d="M950.5,-114C968.38,-114 975.47,-113.84 989.14,-113.77"/>
<polygon fill="black" stroke="black" points="988.99,-117.28 998.99,-113.75 988.98,-110.28 988.99,-117.28"/>
</g>
<!-- op_pad_31&#45;&gt;op_add_25 -->
<g id="edge11" class="edge">
<title>op_pad_31:out&#45;&gt;op_add_25:in2</title>
<path fill="none" stroke="black" d="M1201.5,-74C1219.46,-74 1226.44,-77.08 1240.11,-78.28"/>
<polygon fill="black" stroke="black" points="1239.85,-81.77 1249.99,-78.69 1240.14,-74.78 1239.85,-81.77"/>
</g>
</g>
</svg>
