<?xml version="1.0" encoding="UTF-8" standalone="no"?>
<?xml-stylesheet href="styles.css" type="text/css"?>
<!DOCTYPE svg PUBLIC "-//W3C//DTD SVG 1.1//EN"
 "http://www.w3.org/Graphics/SVG/1.1/DTD/svg11.dtd">
<!-- Generated by graphviz version 14.1.2 (20260124.0452)
 -->
<!-- Title: FirFilter Pages: 1 -->
<svg width="800pt" height="209pt"
 viewBox="0.00 0.00 800.00 209.00" xmlns="http://www.w3.org/2000/svg" xmlns:xlink="http://www.w3.org/1999/xlink">
<g id="graph0" class="graph" transform="scale(1 1) rotate(0) translate(4 205)">
<title>FirFilter</title>
<polygon fill="white" stroke="none" points="-4,4 -4,-205 796.25,-205 796.25,4 -4,4"/>
<g id="clust1" class="cluster">
<title>cluster_FirFilter</title>
<polygon fill="#fff8dc" stroke="black" points="8,-8 8,-193 784.25,-193 784.25,-8 8,-8"/>
<text xml:space="preserve" text-anchor="middle" x="396.13" y="-175.7" font-family="Times New Roman,serif" font-size="14.00">FirFilter</text>
</g>
<!-- cluster_FirFilter_clock -->
<g id="node1" class="node">
<title>cluster_FirFilter_clock</title>
<polygon fill="#cccccc" stroke="black" points="70,-52 16,-52 16,-16 70,-16 70,-52"/>
<text xml:space="preserve" text-anchor="middle" x="43" y="-28.95" font-family="Times New Roman,serif" font-size="14.00">clock</text>
</g>
<!-- cluster_FirFilter_reset -->
<g id="node2" class="node">
<title>cluster_FirFilter_reset</title>
<polygon fill="#cccccc" stroke="black" points="70,-106 16,-106 16,-70 70,-70 70,-106"/>
<text xml:space="preserve" text-anchor="middle" x="43" y="-82.95" font-family="Times New Roman,serif" font-size="14.00">reset</text>
</g>
<!-- cluster_FirFilter_io_in -->
<g id="node3" class="node">
<title>cluster_FirFilter_io_in</title>
<polygon fill="#cccccc" stroke="black" points="70,-160 16,-160 16,-124 70,-124 70,-160"/>
<text xml:space="preserve" text-anchor="middle" x="43" y="-136.95" font-family="Times New Roman,serif" font-size="14.00">io_in</text>
</g>
<!-- struct_cluster_FirFilter_zs_0 -->
<g id="node5" class="node">
<title>struct_cluster_FirFilter_zs_0</title>
<polygon fill="#ffe4b5" stroke="none" points="114,-128.75 114,-155.25 185.25,-155.25 185.25,-128.75 114,-128.75"/>
<polygon fill="none" stroke="black" points="114,-128.75 114,-155.25 132.25,-155.25 132.25,-128.75 114,-128.75"/>
<text xml:space="preserve" text-anchor="start" x="119" y="-136.95" font-family="Times New Roman,serif" font-size="14.00">●</text>
<polygon fill="none" stroke="black" points="132.25,-128.75 132.25,-155.25 167,-155.25 167,-128.75 132.25,-128.75"/>
<text xml:space="preserve" text-anchor="start" x="137.25" y="-136.95" font-family="Times New Roman,serif" font-size="14.00">zs_0</text>
<polygon fill="none" stroke="black" points="167,-128.75 167,-155.25 185.25,-155.25 185.25,-128.75 167,-128.75"/>
<text xml:space="preserve" text-anchor="start" x="172" y="-136.95" font-family="Times New Roman,serif" font-size="14.00">●</text>
</g>
<!-- cluster_FirFilter_io_in&#45;&gt;struct_cluster_FirFilter_zs_0 -->
<g id="edge1" class="edge">
<title>cluster_FirFilter_io_in&#45;&gt;struct_cluster_FirFilter_zs_0:in</title>
<path fill="none" stroke="black" d="M70.21,-142C79.78,-142 90.93,-142 101.82,-142"/>
<polygon fill="black" stroke="black" points="101.49,-145.5 111.49,-142 101.49,-138.5 101.49,-145.5"/>
</g>
<!-- cluster_FirFilter_io_out -->
<g id="node4" class="node">
<title>cluster_FirFilter_io_out</title>
<polygon fill="#e0ffff" stroke="black" points="776.25,-110 722.25,-110 722.25,-74 776.25,-74 776.25,-110"/>
<text xml:space="preserve" text-anchor="middle" x="749.25" y="-86.95" font-family="Times New Roman,serif" font-size="14.00">io_out</text>
</g>
<!-- struct_cluster_FirFilter_zs_1 -->
<g id="node6" class="node">
<title>struct_cluster_FirFilter_zs_1</title>
<polygon fill="#ffe4b5" stroke="none" points="239.5,-49.75 239.5,-76.25 310.75,-76.25 310.75,-49.75 239.5,-49.75"/>
<polygon fill="none" stroke="black" points="239.5,-49.75 239.5,-76.25 257.75,-76.25 257.75,-49.75 239.5,-49.75"/>
<text xml:space="preserve" text-anchor="start" x="244.5" y="-57.95" font-family="Times New Roman,serif" font-size="14.00">●</text>
<polygon fill="none" stroke="black" points="257.75,-49.75 257.75,-76.25 292.5,-76.25 292.5,-49.75 257.75,-49.75"/>
<text xml:space="preserve" text-anchor="start" x="262.75" y="-57.95" font-family="Times New Roman,serif" font-size="14.00">zs_1</text>
<polygon fill="none" stroke="black" points="292.5,-49.75 292.5,-76.25 310.75,-76.25 310.75,-49.75 292.5,-49.75"/>
<text xml:space="preserve" text-anchor="start" x="297.5" y="-57.95" font-family="Times New Roman,serif" font-size="14.00">●</text>
</g>
<!-- struct_cluster_FirFilter_zs_0&#45;&gt;struct_cluster_FirFilter_zs_1 -->
<g id="edge3" class="edge">
<title>struct_cluster_FirFilter_zs_0:out&#45;&gt;struct_cluster_FirFilter_zs_1:in</title>
<path fill="none" stroke="black" d="M176.13,-127.75C176.13,-126.8 219.93,-97.55 239.44,-84"/>
<polygon fill="black" stroke="black" points="241.42,-86.89 247.41,-78.15 237.28,-81.25 241.42,-86.89"/>
</g>
<!-- op_mul_15 -->
<g id="node8" class="node">
<title>op_mul_15</title>
<polygon fill="#d8bfd8" stroke="none" points="237.25,-103.5 237.25,-156.5 313,-156.5 313,-103.5 237.25,-103.5"/>
<polygon fill="none" stroke="black" points="237.25,-130 237.25,-156.5 255.5,-156.5 255.5,-130 237.25,-130"/>
<text xml:space="preserve" text-anchor="start" x="242.25" y="-138.2" font-family="Times New Roman,serif" font-size="14.00">●</text>
<polygon fill="none" stroke="black" points="255.5,-103.5 255.5,-156.5 294.75,-156.5 294.75,-103.5 255.5,-103.5"/>
<text xml:space="preserve" text-anchor="start" x="260.5" y="-124.95" font-family="Times New Roman,serif" font-size="14.00"> mul </text>
<polygon fill="none" stroke="black" points="294.75,-103.5 294.75,-156.5 313,-156.5 313,-103.5 294.75,-103.5"/>
<text xml:space="preserve" text-anchor="start" x="299.75" y="-124.95" font-family="Times New Roman,serif" font-size="14.00">●</text>
<polygon fill="none" stroke="black" points="237.25,-103.5 237.25,-130 255.5,-130 255.5,-103.5 237.25,-103.5"/>
<text xml:space="preserve" text-anchor="start" x="243" y="-111.7" font-family="Times New Roman,serif" font-size="14.00">0</text>
</g>
<!-- struct_cluster_FirFilter_zs_0&#45;&gt;op_mul_15 -->
<g id="edge4" class="edge">
<title>struct_cluster_FirFilter_zs_0:out&#45;&gt;op_mul_15:in1</title>
<path fill="none" stroke="black" d="M186.25,-142C204.14,-142 211.22,-142.81 224.89,-143.13"/>
<polygon fill="black" stroke="black" points="224.7,-146.62 234.74,-143.23 224.78,-139.62 224.7,-146.62"/>
</g>
<!-- op_mul_16 -->
<g id="node10" class="node">
<title>op_mul_16</title>
<polygon fill="#d8bfd8" stroke="none" points="365,-36.5 365,-89.5 440.75,-89.5 440.75,-36.5 365,-36.5"/>
<polygon fill="none" stroke="black" points="365,-63 365,-89.5 383.25,-89.5 383.25,-63 365,-63"/>
<text xml:space="preserve" text-anchor="start" x="370" y="-71.2" font-family="Times New Roman,serif" font-size="14.00">●</text>
<polygon fill="none" stroke="black" points="383.25,-36.5 383.25,-89.5 422.5,-89.5 422.5,-36.5 383.25,-36.5"/>
<text xml:space="preserve" text-anchor="start" x="388.25" y="-57.95" font-family="Times New Roman,serif" font-size="14.00"> mul </text>
<polygon fill="none" stroke="black" points="422.5,-36.5 422.5,-89.5 440.75,-89.5 440.75,-36.5 422.5,-36.5"/>
<text xml:space="preserve" text-anchor="start" x="427.5" y="-57.95" font-family="Times New Roman,serif" font-size="14.00">●</text>
<polygon fill="none" stroke="black" points="365,-36.5 365,-63 383.25,-63 383.25,-36.5 365,-36.5"/>
<text xml:space="preserve" text-anchor="start" x="370.75" y="-44.7" font-family="Times New Roman,serif" font-size="14.00">1</text>
</g>
<!-- struct_cluster_FirFilter_zs_1&#45;&gt;op_mul_16 -->
<g id="edge7" class="edge">
<title>struct_cluster_FirFilter_zs_1:out&#45;&gt;op_mul_16:in1</title>
<path fill="none" stroke="black" d="M311.75,-63C331.4,-63 337.85,-71.92 352.76,-75.12"/>
<polygon fill="black" stroke="black" points="352.19,-78.58 362.49,-76.1 352.89,-71.62 352.19,-78.58"/>
</g>
<!-- cluster_FirFilter_products_0 -->
<g id="node7" class="node">
<title>cluster_FirFilter_products_0</title>
<polygon fill="none" stroke="black" points="560.75,-143 484.75,-143 484.75,-107 560.75,-107 560.75,-143"/>
<text xml:space="preserve" text-anchor="middle" x="522.75" y="-119.95" font-family="Times New Roman,serif" font-size="14.00">products_0</text>
</g>
<!-- op_add_17 -->
<g id="node11" class="node">
<title>op_add_17</title>
<polygon fill="#d8bfd8" stroke="none" points="604.75,-65.5 604.75,-118.5 678.25,-118.5 678.25,-65.5 604.75,-65.5"/>
<polygon fill="none" stroke="black" points="604.75,-92 604.75,-118.5 623,-118.5 623,-92 604.75,-92"/>
<text xml:space="preserve" text-anchor="start" x="609.75" y="-100.2" font-family="Times New Roman,serif" font-size="14.00">●</text>
<polygon fill="none" stroke="black" points="623,-65.5 623,-118.5 660,-118.5 660,-65.5 623,-65.5"/>
<text xml:space="preserve" text-anchor="start" x="628" y="-86.95" font-family="Times New Roman,serif" font-size="14.00"> add </text>
<polygon fill="none" stroke="black" points="660,-65.5 660,-118.5 678.25,-118.5 678.25,-65.5 660,-65.5"/>
<text xml:space="preserve" text-anchor="start" x="665" y="-86.95" font-family="Times New Roman,serif" font-size="14.00">●</text>
<polygon fill="none" stroke="black" points="604.75,-65.5 604.75,-92 623,-92 623,-65.5 604.75,-65.5"/>
<text xml:space="preserve" text-anchor="start" x="609.75" y="-73.7" font-family="Times New Roman,serif" font-size="14.00">●</text>
</g>
<!-- cluster_FirFilter_products_0&#45;&gt;op_add_17 -->
<g id="edge8" class="edge">
<title>cluster_FirFilter_products_0&#45;&gt;op_add_17:in1</title>
<path fill="none" stroke="black" d="M561.13,-111.83C570.89,-109.17 581.66,-106.87 592.3,-105.83"/>
<polygon fill="black" stroke="black" points="592.43,-109.33 602.24,-105.33 592.07,-102.34 592.43,-109.33"/>
</g>
<!-- op_mul_15&#45;&gt;cluster_FirFilter_products_0 -->
<g id="edge9" class="edge">
<title>op_mul_15:out&#45;&gt;cluster_FirFilter_products_0</title>
<path fill="none" stroke="black" d="M314,-130C368.58,-130 431.2,-128.25 473.3,-126.83"/>
<polygon fill="black" stroke="black" points="473.22,-130.33 483.09,-126.49 472.98,-123.33 473.22,-130.33"/>
</g>
<!-- cluster_FirFilter_products_1 -->
<g id="node9" class="node">
<title>cluster_FirFilter_products_1</title>
<polygon fill="none" stroke="black" points="560.75,-83 484.75,-83 484.75,-47 560.75,-47 560.75,-83"/>
<text xml:space="preserve" text-anchor="middle" x="522.75" y="-59.95" font-family="Times New Roman,serif" font-size="14.00">products_1</text>
</g>
<!-- cluster_FirFilter_products_1&#45;&gt;op_add_17 -->
<g id="edge5" class="edge">
<title>cluster_FirFilter_products_1&#45;&gt;op_add_17:in2</title>
<path fill="none" stroke="black" d="M560.97,-74.09C570.81,-75.97 581.67,-77.6 592.32,-78.34"/>
<polygon fill="black" stroke="black" points="592.12,-81.83 602.24,-78.7 592.37,-74.84 592.12,-81.83"/>
</g>
<!-- op_mul_16&#45;&gt;cluster_FirFilter_products_1 -->
<g id="edge6" class="edge">
<title>op_mul_16:out&#45;&gt;cluster_FirFilter_products_1</title>
<path fill="none" stroke="black" d="M441.75,-63C451.84,-63 462.65,-63.16 472.96,-63.39"/>
<polygon fill="black" stroke="black" points="472.71,-66.89 482.8,-63.64 472.89,-59.89 472.71,-66.89"/>
</g>
<!-- op_add_17&#45;&gt;cluster_FirFilter_io_out -->
<g id="edge2" class="edge">
<title>op_add_17:out&#45;&gt;cluster_FirFilter_io_out</title>
<path fill="none" stroke="black" d="M679.25,-92C689.41,-92 700.41,-92 710.58,-92"/>
<polygon fill="black" stroke="black" points="710.52,-95.5 720.52,-92 710.52,-88.5 710.52,-95.5"/>
</g>
</g>
</svg>
