<?xml version="1.0" encoding="UTF-8" standalone="no"?>
<?xml-stylesheet href="styles.css" type="text/css"?>
<!DOCTYPE svg PUBLIC "-//W3C//DTD SVG 1.1//EN"
 "http://www.w3.org/Graphics/SVG/1.1/DTD/svg11.dtd">
<!-- Generated by graphviz version 14.1.2 (20260124.0452)
 -->
<!-- Title: FirFilter Pages: 1 -->
<svg width="1067pt" height="235pt"
 viewBox="0.00 0.00 1067.00 235.00" xmlns="http://www.w3.org/2000/svg" xmlns:xlink="http://www.w3.org/1999/xlink">
<g id="graph0" class="graph" transform="scale(1 1) rotate(0) translate(4 231)">
<title>FirFilter</title>
<polygon fill="white" stroke="none" points="-4,4 -4,-231 1063,-231 1063,4 -4,4"/>
<g id="clust1" class="cluster">
<title>cluster_FirFilter</title>
<polygon fill="#fff8dc" stroke="black" points="8,-8 8,-219 1051,-219 1051,-8 8,-8"/>
<text xml:space="preserve" text-anchor="middle" x="529.5" y="-201.7" font-family="Times New Roman,serif" font-size="14.00">FirFilter</text>
</g>
<!-- cluster_FirFilter_clock -->
<g id="node1" class="node">
<title>cluster_FirFilter_clock</title>
<polygon fill="#cccccc" stroke="black" points="70,-65 16,-65 16,-29 70,-29 70,-65"/>
<text xml:space="preserve" text-anchor="middle" x="43" y="-41.95" font-family="Times New Roman,serif" font-size="14.00">clock</text>
</g>
<!-- cluster_FirFilter_reset -->
<g id="node2" class="node">
<title>cluster_FirFilter_reset</title>
<polygon fill="#cccccc" stroke="black" points="70,-125 16,-125 16,-89 70,-89 70,-125"/>
<text xml:space="preserve" text-anchor="middle" x="43" y="-101.95" font-family="Times New Roman,serif" font-size="14.00">reset</text>
</g>
<!-- cluster_FirFilter_io_in -->
<g id="node3" class="node">
<title>cluster_FirFilter_io_in</title>
<polygon fill="#cccccc" stroke="black" points="70,-182 16,-182 16,-146 70,-146 70,-182"/>
<text xml:space="preserve" text-anchor="middle" x="43" y="-158.95" font-family="Times New Roman,serif" font-size="14.00">io_in</text>
</g>
<!-- struct_cluster_FirFilter_zs_0 -->
<g id="node5" class="node">
<title>struct_cluster_FirFilter_zs_0</title>
<polygon fill="#ffe4b5" stroke="none" points="114,-150.75 114,-177.25 185.25,-177.25 185.25,-150.75 114,-150.75"/>
<polygon fill="none" stroke="black" points="114,-150.75 114,-177.25 132.25,-177.25 132.25,-150.75 114,-150.75"/>
<text xml:space="preserve" text-anchor="start" x="119" y="-158.95" font-family="Times New Roman,serif" font-size="14.00">●</text>
<polygon fill="none" stroke="black" points="132.25,-150.75 132.25,-177.25 167,-177.25 167,-150.75 132.25,-150.75"/>
<text xml:space="preserve" text-anchor="start" x="137.25" y="-158.95" font-family="Times New Roman,serif" font-size="14.00">zs_0</text>
<polygon fill="none" stroke="black" points="167,-150.75 167,-177.25 185.25,-177.25 185.25,-150.75 167,-150.75"/>
<text xml:space="preserve" text-anchor="start" x="172" y="-158.95" font-family="Times New Roman,serif" font-size="14.00">●</text>
</g>
<!-- cluster_FirFilter_io_in&#45;&gt;struct_cluster_FirFilter_zs_0 -->
<g id="edge2" class="edge">
<title>cluster_FirFilter_io_in&#45;&gt;struct_cluster_FirFilter_zs_0:in</title>
<path fill="none" stroke="black" d="M70.21,-164C79.78,-164 90.93,-164 101.82,-164"/>
<polygon fill="black" stroke="black" points="101.49,-167.5 111.49,-164 101.49,-160.5 101.49,-167.5"/>
</g>
<!-- cluster_FirFilter_io_out -->
<g id="node4" class="node">
<title>cluster_FirFilter_io_out</title>
<polygon fill="#e0ffff" stroke="black" points="1043,-109 989,-109 989,-73 1043,-73 1043,-109"/>
<text xml:space="preserve" text-anchor="middle" x="1016" y="-85.95" font-family="Times New Roman,serif" font-size="14.00">io_out</text>
</g>
<!-- struct_cluster_FirFilter_zs_1 -->
<g id="node6" class="node">
<title>struct_cluster_FirFilter_zs_1</title>
<polygon fill="#ffe4b5" stroke="none" points="239.5,-75.75 239.5,-102.25 310.75,-102.25 310.75,-75.75 239.5,-75.75"/>
<polygon fill="none" stroke="black" points="239.5,-75.75 239.5,-102.25 257.75,-102.25 257.75,-75.75 239.5,-75.75"/>
<text xml:space="preserve" text-anchor="start" x="244.5" y="-83.95" font-family="Times New Roman,serif" font-size="14.00">●</text>
<polygon fill="none" stroke="black" points="257.75,-75.75 257.75,-102.25 292.5,-102.25 292.5,-75.75 257.75,-75.75"/>
<text xml:space="preserve" text-anchor="start" x="262.75" y="-83.95" font-family="Times New Roman,serif" font-size="14.00">zs_1</text>
<polygon fill="none" stroke="black" points="292.5,-75.75 292.5,-102.25 310.75,-102.25 310.75,-75.75 292.5,-75.75"/>
<text xml:space="preserve" text-anchor="start" x="297.5" y="-83.95" font-family="Times New Roman,serif" font-size="14.00">●</text>
</g>
<!-- struct_cluster_FirFilter_zs_0&#45;&gt;struct_cluster_FirFilter_zs_1 -->
<g id="edge9" class="edge">
<title>struct_cluster_FirFilter_zs_0:out&#45;&gt;struct_cluster_FirFilter_zs_1:in</title>
<path fill="none" stroke="black" d="M176.13,-149.75C176.13,-146.01 220.38,-122.65 239.74,-110.33"/>
<polygon fill="black" stroke="black" points="241.8,-113.16 247.44,-104.19 237.44,-107.69 241.8,-113.16"/>
</g>
<!-- op_mul_9 -->
<g id="node9" class="node">
<title>op_mul_9</title>
<polygon fill="#d8bfd8" stroke="none" points="237.25,-129.5 237.25,-182.5 313,-182.5 313,-129.5 237.25,-129.5"/>
<polygon fill="none" stroke="black" points="237.25,-156 237.25,-182.5 255.5,-182.5 255.5,-156 237.25,-156"/>
<text xml:space="preserve" text-anchor="start" x="242.25" y="-164.2" font-family="Times New Roman,serif" font-size="14.00">●</text>
<polygon fill="none" stroke="black" points="255.5,-129.5 255.5,-182.5 294.75,-182.5 294.75,-129.5 255.5,-129.5"/>
<text xml:space="preserve" text-anchor="start" x="260.5" y="-150.95" font-family="Times New Roman,serif" font-size="14.00"> mul </text>
<polygon fill="none" stroke="black" points="294.75,-129.5 294.75,-182.5 313,-182.5 313,-129.5 294.75,-129.5"/>
<text xml:space="preserve" text-anchor="start" x="299.75" y="-150.95" font-family="Times New Roman,serif" font-size="14.00">●</text>
<polygon fill="none" stroke="black" points="237.25,-129.5 237.25,-156 255.5,-156 255.5,-129.5 237.25,-129.5"/>
<text xml:space="preserve" text-anchor="start" x="243" y="-137.7" font-family="Times New Roman,serif" font-size="14.00">1</text>
</g>
<!-- struct_cluster_FirFilter_zs_0&#45;&gt;op_mul_9 -->
<g id="edge12" class="edge">
<title>struct_cluster_FirFilter_zs_0:out&#45;&gt;op_mul_9:in1</title>
<path fill="none" stroke="black" d="M186.25,-164C204.23,-164 211.18,-167.4 224.85,-168.73"/>
<polygon fill="black" stroke="black" points="224.59,-172.22 234.74,-169.18 224.91,-165.23 224.59,-172.22"/>
</g>
<!-- struct_cluster_FirFilter_zs_2 -->
<g id="node7" class="node">
<title>struct_cluster_FirFilter_zs_2</title>
<polygon fill="#ffe4b5" stroke="none" points="367.25,-34.75 367.25,-61.25 438.5,-61.25 438.5,-34.75 367.25,-34.75"/>
<polygon fill="none" stroke="black" points="367.25,-34.75 367.25,-61.25 385.5,-61.25 385.5,-34.75 367.25,-34.75"/>
<text xml:space="preserve" text-anchor="start" x="372.25" y="-42.95" font-family="Times New Roman,serif" font-size="14.00">●</text>
<polygon fill="none" stroke="black" points="385.5,-34.75 385.5,-61.25 420.25,-61.25 420.25,-34.75 385.5,-34.75"/>
<text xml:space="preserve" text-anchor="start" x="390.5" y="-42.95" font-family="Times New Roman,serif" font-size="14.00">zs_2</text>
<polygon fill="none" stroke="black" points="420.25,-34.75 420.25,-61.25 438.5,-61.25 438.5,-34.75 420.25,-34.75"/>
<text xml:space="preserve" text-anchor="start" x="425.25" y="-42.95" font-family="Times New Roman,serif" font-size="14.00">●</text>
</g>
<!-- struct_cluster_FirFilter_zs_1&#45;&gt;struct_cluster_FirFilter_zs_2 -->
<g id="edge1" class="edge">
<title>struct_cluster_FirFilter_zs_1:out&#45;&gt;struct_cluster_FirFilter_zs_2:in</title>
<path fill="none" stroke="black" d="M311.75,-89C337.8,-89 336.94,-58.72 355.42,-50.2"/>
<polygon fill="black" stroke="black" points="355.67,-53.73 364.77,-48.3 354.27,-46.87 355.67,-53.73"/>
</g>
<!-- op_mul_10 -->
<g id="node11" class="node">
<title>op_mul_10</title>
<polygon fill="#d8bfd8" stroke="none" points="365,-88.5 365,-141.5 440.75,-141.5 440.75,-88.5 365,-88.5"/>
<polygon fill="none" stroke="black" points="365,-115 365,-141.5 383.25,-141.5 383.25,-115 365,-115"/>
<text xml:space="preserve" text-anchor="start" x="370" y="-123.2" font-family="Times New Roman,serif" font-size="14.00">●</text>
<polygon fill="none" stroke="black" points="383.25,-88.5 383.25,-141.5 422.5,-141.5 422.5,-88.5 383.25,-88.5"/>
<text xml:space="preserve" text-anchor="start" x="388.25" y="-109.95" font-family="Times New Roman,serif" font-size="14.00"> mul </text>
<polygon fill="none" stroke="black" points="422.5,-88.5 422.5,-141.5 440.75,-141.5 440.75,-88.5 422.5,-88.5"/>
<text xml:space="preserve" text-anchor="start" x="427.5" y="-109.95" font-family="Times New Roman,serif" font-size="14.00">●</text>
<polygon fill="none" stroke="black" points="365,-88.5 365,-115 383.25,-115 383.25,-88.5 365,-88.5"/>
<text xml:space="preserve" text-anchor="start" x="370.75" y="-96.7" font-family="Times New Roman,serif" font-size="14.00">1</text>
</g>
<!-- struct_cluster_FirFilter_zs_1&#45;&gt;op_mul_10 -->
<g id="edge3" class="edge">
<title>struct_cluster_FirFilter_zs_1:out&#45;&gt;op_mul_10:in1</title>
<path fill="none" stroke="black" d="M311.75,-89C336.48,-89 335.92,-117.46 353.14,-125.91"/>
<polygon fill="black" stroke="black" points="352.01,-129.25 362.52,-127.93 353.48,-122.4 352.01,-129.25"/>
</g>
<!-- op_mul_11 -->
<g id="node13" class="node">
<title>op_mul_11</title>
<polygon fill="#d8bfd8" stroke="none" points="492.75,-20.5 492.75,-73.5 568.5,-73.5 568.5,-20.5 492.75,-20.5"/>
<polygon fill="none" stroke="black" points="492.75,-47 492.75,-73.5 511,-73.5 511,-47 492.75,-47"/>
<text xml:space="preserve" text-anchor="start" x="497.75" y="-55.2" font-family="Times New Roman,serif" font-size="14.00">●</text>
<polygon fill="none" stroke="black" points="511,-20.5 511,-73.5 550.25,-73.5 550.25,-20.5 511,-20.5"/>
<text xml:space="preserve" text-anchor="start" x="516" y="-41.95" font-family="Times New Roman,serif" font-size="14.00"> mul </text>
<polygon fill="none" stroke="black" points="550.25,-20.5 550.25,-73.5 568.5,-73.5 568.5,-20.5 550.25,-20.5"/>
<text xml:space="preserve" text-anchor="start" x="555.25" y="-41.95" font-family="Times New Roman,serif" font-size="14.00">●</text>
<polygon fill="none" stroke="black" points="492.75,-20.5 492.75,-47 511,-47 511,-20.5 492.75,-20.5"/>
<text xml:space="preserve" text-anchor="start" x="498.5" y="-28.7" font-family="Times New Roman,serif" font-size="14.00">1</text>
</g>
<!-- struct_cluster_FirFilter_zs_2&#45;&gt;op_mul_11 -->
<g id="edge7" class="edge">
<title>struct_cluster_FirFilter_zs_2:out&#45;&gt;op_mul_11:in1</title>
<path fill="none" stroke="black" d="M439.5,-48C459.07,-48 465.64,-56.24 480.54,-59.21"/>
<polygon fill="black" stroke="black" points="479.96,-62.67 490.24,-60.11 480.61,-55.7 479.96,-62.67"/>
</g>
<!-- cluster_FirFilter_products_0 -->
<g id="node8" class="node">
<title>cluster_FirFilter_products_0</title>
<polygon fill="none" stroke="black" points="568.63,-186 492.63,-186 492.63,-150 568.63,-150 568.63,-186"/>
<text xml:space="preserve" text-anchor="middle" x="530.63" y="-162.95" font-family="Times New Roman,serif" font-size="14.00">products_0</text>
</g>
<!-- op_add_13 -->
<g id="node15" class="node">
<title>op_add_13</title>
<polygon fill="#d8bfd8" stroke="none" points="620.5,-100.5 620.5,-153.5 694,-153.5 694,-100.5 620.5,-100.5"/>
<polygon fill="none" stroke="black" points="620.5,-127 620.5,-153.5 638.75,-153.5 638.75,-127 620.5,-127"/>
<text xml:space="preserve" text-anchor="start" x="625.5" y="-135.2" font-family="Times New Roman,serif" font-size="14.00">●</text>
<polygon fill="none" stroke="black" points="638.75,-100.5 638.75,-153.5 675.75,-153.5 675.75,-100.5 638.75,-100.5"/>
<text xml:space="preserve" text-anchor="start" x="643.75" y="-121.95" font-family="Times New Roman,serif" font-size="14.00"> add </text>
<polygon fill="none" stroke="black" points="675.75,-100.5 675.75,-153.5 694,-153.5 694,-100.5 675.75,-100.5"/>
<text xml:space="preserve" text-anchor="start" x="680.75" y="-121.95" font-family="Times New Roman,serif" font-size="14.00">●</text>
<polygon fill="none" stroke="black" points="620.5,-100.5 620.5,-127 638.75,-127 638.75,-100.5 620.5,-100.5"/>
<text xml:space="preserve" text-anchor="start" x="625.5" y="-108.7" font-family="Times New Roman,serif" font-size="14.00">●</text>
</g>
<!-- cluster_FirFilter_products_0&#45;&gt;op_add_13 -->
<g id="edge13" class="edge">
<title>cluster_FirFilter_products_0&#45;&gt;op_add_13:in1</title>
<path fill="none" stroke="black" d="M568.88,-150.74C580.87,-146.33 594.57,-142.41 608.16,-140.9"/>
<polygon fill="black" stroke="black" points="608.21,-144.41 617.99,-140.34 607.8,-137.42 608.21,-144.41"/>
</g>
<!-- op_mul_9&#45;&gt;cluster_FirFilter_products_0 -->
<g id="edge15" class="edge">
<title>op_mul_9:out&#45;&gt;cluster_FirFilter_products_0</title>
<path fill="none" stroke="black" d="M314,-156C371.35,-156 437.16,-160.28 480.83,-163.73"/>
<polygon fill="black" stroke="black" points="480.51,-167.22 490.76,-164.54 481.07,-160.24 480.51,-167.22"/>
</g>
<!-- cluster_FirFilter_products_1 -->
<g id="node10" class="node">
<title>cluster_FirFilter_products_1</title>
<polygon fill="none" stroke="black" points="568.63,-132 492.63,-132 492.63,-96 568.63,-96 568.63,-132"/>
<text xml:space="preserve" text-anchor="middle" x="530.63" y="-108.95" font-family="Times New Roman,serif" font-size="14.00">products_1</text>
</g>
<!-- cluster_FirFilter_products_1&#45;&gt;op_add_13 -->
<g id="edge8" class="edge">
<title>cluster_FirFilter_products_1&#45;&gt;op_add_13:in2</title>
<path fill="none" stroke="black" d="M568.82,-113.85C581.05,-113.81 594.95,-113.77 608.38,-113.76"/>
<polygon fill="black" stroke="black" points="607.99,-117.26 617.99,-113.75 607.98,-110.26 607.99,-117.26"/>
</g>
<!-- op_mul_10&#45;&gt;cluster_FirFilter_products_1 -->
<g id="edge10" class="edge">
<title>op_mul_10:out&#45;&gt;cluster_FirFilter_products_1</title>
<path fill="none" stroke="black" d="M441.75,-115C454.48,-115 468.25,-114.89 481.03,-114.75"/>
<polygon fill="black" stroke="black" points="480.96,-118.25 490.91,-114.63 480.87,-111.25 480.96,-118.25"/>
</g>
<!-- cluster_FirFilter_products_2 -->
<g id="node12" class="node">
<title>cluster_FirFilter_products_2</title>
<polygon fill="none" stroke="black" points="695.25,-70 619.25,-70 619.25,-34 695.25,-34 695.25,-70"/>
<text xml:space="preserve" text-anchor="middle" x="657.25" y="-46.95" font-family="Times New Roman,serif" font-size="14.00">products_2</text>
</g>
<!-- op_pad_14 -->
<g id="node16" class="node">
<title>op_pad_14</title>
<polygon fill="#d8bfd8" stroke="none" points="746,-59.75 746,-86.25 819.5,-86.25 819.5,-59.75 746,-59.75"/>
<polygon fill="none" stroke="black" points="746,-59.75 746,-86.25 764.25,-86.25 764.25,-59.75 746,-59.75"/>
<text xml:space="preserve" text-anchor="start" x="751" y="-67.95" font-family="Times New Roman,serif" font-size="14.00">●</text>
<polygon fill="none" stroke="black" points="764.25,-59.75 764.25,-86.25 801.25,-86.25 801.25,-59.75 764.25,-59.75"/>
<text xml:space="preserve" text-anchor="start" x="769.25" y="-67.95" font-family="Times New Roman,serif" font-size="14.00"> pad </text>
<polygon fill="none" stroke="black" points="801.25,-59.75 801.25,-86.25 819.5,-86.25 819.5,-59.75 801.25,-59.75"/>
<text xml:space="preserve" text-anchor="start" x="806.25" y="-67.95" font-family="Times New Roman,serif" font-size="14.00">●</text>
</g>
<!-- cluster_FirFilter_products_2&#45;&gt;op_pad_14 -->
<g id="edge14" class="edge">
<title>cluster_FirFilter_products_2&#45;&gt;op_pad_14:in1</title>
<path fill="none" stroke="black" d="M695.35,-65.06C707.1,-68.36 720.46,-71.31 733.58,-72.47"/>
<polygon fill="black" stroke="black" points="733.34,-75.96 743.49,-72.93 733.66,-68.97 733.34,-75.96"/>
</g>
<!-- op_mul_11&#45;&gt;cluster_FirFilter_products_2 -->
<g id="edge4" class="edge">
<title>op_mul_11:out&#45;&gt;cluster_FirFilter_products_2</title>
<path fill="none" stroke="black" d="M569.5,-47C581.97,-47 595.44,-47.52 607.96,-48.23"/>
<polygon fill="black" stroke="black" points="607.42,-51.7 617.62,-48.83 607.85,-44.71 607.42,-51.7"/>
</g>
<!-- op_add_12 -->
<g id="node14" class="node">
<title>op_add_12</title>
<polygon fill="#d8bfd8" stroke="none" points="871.5,-64.5 871.5,-117.5 945,-117.5 945,-64.5 871.5,-64.5"/>
<polygon fill="none" stroke="black" points="871.5,-91 871.5,-117.5 889.75,-117.5 889.75,-91 871.5,-91"/>
<text xml:space="preserve" text-anchor="start" x="876.5" y="-99.2" font-family="Times New Roman,serif" font-size="14.00">●</text>
<polygon fill="none" stroke="black" points="889.75,-64.5 889.75,-117.5 926.75,-117.5 926.75,-64.5 889.75,-64.5"/>
<text xml:space="preserve" text-anchor="start" x="894.75" y="-85.95" font-family="Times New Roman,serif" font-size="14.00"> add </text>
<polygon fill="none" stroke="black" points="926.75,-64.5 926.75,-117.5 945,-117.5 945,-64.5 926.75,-64.5"/>
<text xml:space="preserve" text-anchor="start" x="931.75" y="-85.95" font-family="Times New Roman,serif" font-size="14.00">●</text>
<polygon fill="none" stroke="black" points="871.5,-64.5 871.5,-91 889.75,-91 889.75,-64.5 871.5,-64.5"/>
<text xml:space="preserve" text-anchor="start" x="876.5" y="-72.7" font-family="Times New Roman,serif" font-size="14.00">●</text>
</g>
<!-- op_add_12&#45;&gt;cluster_FirFilter_io_out -->
<g id="edge6" class="edge">
<title>op_add_12:out&#45;&gt;cluster_FirFilter_io_out</title>
<path fill="none" stroke="black" d="M946,-91C956.16,-91 967.16,-91 977.33,-91"/>
<polygon fill="black" stroke="black" points="977.27,-94.5 987.27,-91 977.27,-87.5 977.27,-94.5"/>
</g>
<!-- op_add_13&#45;&gt;op_add_12 -->
<g id="edge11" class="edge">
<title>op_add_13:out&#45;&gt;op_add_12:in1</title>
<path fill="none" stroke="black" d="M695,-127C769.81,-127 789.93,-106.42 859.4,-104.41"/>
<polygon fill="black" stroke="black" points="859.04,-107.91 868.99,-104.27 858.94,-100.91 859.04,-107.91"/>
</g>
<!-- op_pad_14&#45;&gt;op_add_12 -->
<g id="edge5" class="edge">
<title>op_pad_14:out&#45;&gt;op_add_12:in2</title>
<path fill="none" stroke="black" d="M820.5,-73C838.46,-73 845.44,-76.08 859.11,-77.28"/>
<polygon fill="black" stroke="black" points="858.85,-80.77 868.99,-77.69 859.14,-73.78 858.85,-80.77"/>
</g>
</g>
</svg>
