<?xml version="1.0" encoding="UTF-8" standalone="no"?>
<?xml-stylesheet href="styles.css" type="text/css"?>
<!DOCTYPE svg PUBLIC "-//W3C//DTD SVG 1.1//EN"
 "http://www.w3.org/Graphics/SVG/1.1/DTD/svg11.dtd">
<!-- Generated by graphviz version 14.1.2 (20260124.0452)
 -->
<!-- Title: MovingAverage3 Pages: 1 -->
<svg width="1089pt" height="235pt"
 viewBox="0.00 0.00 1089.00 235.00" xmlns="http://www.w3.org/2000/svg" xmlns:xlink="http://www.w3.org/1999/xlink">
<g id="graph0" class="graph" transform="scale(1 1) rotate(0) translate(4 231)">
<title>MovingAverage3</title>
<polygon fill="white" stroke="none" points="-4,4 -4,-231 1084.75,-231 1084.75,4 -4,4"/>
<g id="clust1" class="cluster">
<title>cluster_MovingAverage3</title>
<polygon fill="#fff8dc" stroke="black" points="8,-8 8,-219 1072.75,-219 1072.75,-8 8,-8"/>
<text xml:space="preserve" text-anchor="middle" x="540.38" y="-201.7" font-family="Times New Roman,serif" font-size="14.00">MovingAverage3</text>
</g>
<!-- cluster_MovingAverage3_clock -->
<g id="node1" class="node">
<title>cluster_MovingAverage3_clock</title>
<polygon fill="#cccccc" stroke="black" points="70,-56 16,-56 16,-20 70,-20 70,-56"/>
<text xml:space="preserve" text-anchor="middle" x="43" y="-32.95" font-family="Times New Roman,serif" font-size="14.00">clock</text>
</g>
<!-- cluster_MovingAverage3_reset -->
<g id="node2" class="node">
<title>cluster_MovingAverage3_reset</title>
<polygon fill="#cccccc" stroke="black" points="70,-116 16,-116 16,-80 70,-80 70,-116"/>
<text xml:space="preserve" text-anchor="middle" x="43" y="-92.95" font-family="Times New Roman,serif" font-size="14.00">reset</text>
</g>
<!-- cluster_MovingAverage3_io_in -->
<g id="node3" class="node">
<title>cluster_MovingAverage3_io_in</title>
<polygon fill="#cccccc" stroke="black" points="70,-173 16,-173 16,-137 70,-137 70,-173"/>
<text xml:space="preserve" text-anchor="middle" x="43" y="-149.95" font-family="Times New Roman,serif" font-size="14.00">io_in</text>
</g>
<!-- struct_cluster_MovingAverage3_z1 -->
<g id="node5" class="node">
<title>struct_cluster_MovingAverage3_z1</title>
<polygon fill="#ffe4b5" stroke="none" points="122.25,-75.75 122.25,-102.25 181.5,-102.25 181.5,-75.75 122.25,-75.75"/>
<polygon fill="none" stroke="black" points="122.25,-75.75 122.25,-102.25 140.5,-102.25 140.5,-75.75 122.25,-75.75"/>
<text xml:space="preserve" text-anchor="start" x="127.25" y="-83.95" font-family="Times New Roman,serif" font-size="14.00">●</text>
<polygon fill="none" stroke="black" points="140.5,-75.75 140.5,-102.25 163.25,-102.25 163.25,-75.75 140.5,-75.75"/>
<text xml:space="preserve" text-anchor="start" x="145.5" y="-83.95" font-family="Times New Roman,serif" font-size="14.00">z1</text>
<polygon fill="none" stroke="black" points="163.25,-75.75 163.25,-102.25 181.5,-102.25 181.5,-75.75 163.25,-75.75"/>
<text xml:space="preserve" text-anchor="start" x="168.25" y="-83.95" font-family="Times New Roman,serif" font-size="14.00">●</text>
</g>
<!-- cluster_MovingAverage3_io_in&#45;&gt;struct_cluster_MovingAverage3_z1 -->
<g id="edge2" class="edge">
<title>cluster_MovingAverage3_io_in&#45;&gt;struct_cluster_MovingAverage3_z1:in</title>
<path fill="none" stroke="black" d="M70.36,-138.41C81.31,-131.64 94.19,-123.81 106,-117 112.08,-113.49 119.1,-113.55 124.21,-112.22"/>
<polygon fill="black" stroke="black" points="126.92,-114.43 130.43,-104.43 121.45,-110.06 126.92,-114.43"/>
</g>
<!-- op_mul_1 -->
<g id="node8" class="node">
<title>op_mul_1</title>
<polygon fill="#d8bfd8" stroke="none" points="114,-129.5 114,-182.5 189.75,-182.5 189.75,-129.5 114,-129.5"/>
<polygon fill="none" stroke="black" points="114,-156 114,-182.5 132.25,-182.5 132.25,-156 114,-156"/>
<text xml:space="preserve" text-anchor="start" x="119" y="-164.2" font-family="Times New Roman,serif" font-size="14.00">●</text>
<polygon fill="none" stroke="black" points="132.25,-129.5 132.25,-182.5 171.5,-182.5 171.5,-129.5 132.25,-129.5"/>
<text xml:space="preserve" text-anchor="start" x="137.25" y="-150.95" font-family="Times New Roman,serif" font-size="14.00"> mul </text>
<polygon fill="none" stroke="black" points="171.5,-129.5 171.5,-182.5 189.75,-182.5 189.75,-129.5 171.5,-129.5"/>
<text xml:space="preserve" text-anchor="start" x="176.5" y="-150.95" font-family="Times New Roman,serif" font-size="14.00">●</text>
<polygon fill="none" stroke="black" points="114,-129.5 114,-156 132.25,-156 132.25,-129.5 114,-129.5"/>
<text xml:space="preserve" text-anchor="start" x="119.75" y="-137.7" font-family="Times New Roman,serif" font-size="14.00">1</text>
</g>
<!-- cluster_MovingAverage3_io_in&#45;&gt;op_mul_1 -->
<g id="edge7" class="edge">
<title>cluster_MovingAverage3_io_in&#45;&gt;op_mul_1:in1</title>
<path fill="none" stroke="black" d="M70.28,-163.04C79.75,-165.44 90.81,-167.7 101.74,-168.7"/>
<polygon fill="black" stroke="black" points="101.33,-172.19 111.49,-169.18 101.67,-165.2 101.33,-172.19"/>
</g>
<!-- cluster_MovingAverage3_io_out -->
<g id="node4" class="node">
<title>cluster_MovingAverage3_io_out</title>
<polygon fill="#e0ffff" stroke="black" points="1064.75,-85 1010.75,-85 1010.75,-49 1064.75,-49 1064.75,-85"/>
<text xml:space="preserve" text-anchor="middle" x="1037.75" y="-61.95" font-family="Times New Roman,serif" font-size="14.00">io_out</text>
</g>
<!-- struct_cluster_MovingAverage3_z2 -->
<g id="node6" class="node">
<title>struct_cluster_MovingAverage3_z2</title>
<polygon fill="#ffe4b5" stroke="none" points="250,-20.75 250,-47.25 309.25,-47.25 309.25,-20.75 250,-20.75"/>
<polygon fill="none" stroke="black" points="250,-20.75 250,-47.25 268.25,-47.25 268.25,-20.75 250,-20.75"/>
<text xml:space="preserve" text-anchor="start" x="255" y="-28.95" font-family="Times New Roman,serif" font-size="14.00">●</text>
<polygon fill="none" stroke="black" points="268.25,-20.75 268.25,-47.25 291,-47.25 291,-20.75 268.25,-20.75"/>
<text xml:space="preserve" text-anchor="start" x="273.25" y="-28.95" font-family="Times New Roman,serif" font-size="14.00">z2</text>
<polygon fill="none" stroke="black" points="291,-20.75 291,-47.25 309.25,-47.25 309.25,-20.75 291,-20.75"/>
<text xml:space="preserve" text-anchor="start" x="296" y="-28.95" font-family="Times New Roman,serif" font-size="14.00">●</text>
</g>
<!-- struct_cluster_MovingAverage3_z1&#45;&gt;struct_cluster_MovingAverage3_z2 -->
<g id="edge11" class="edge">
<title>struct_cluster_MovingAverage3_z1:out&#45;&gt;struct_cluster_MovingAverage3_z2:in</title>
<path fill="none" stroke="black" d="M182.5,-89C216.51,-89 212.34,-45.76 237.69,-35.96"/>
<polygon fill="black" stroke="black" points="238.25,-39.41 247.51,-34.26 237.06,-32.52 238.25,-39.41"/>
</g>
<!-- op_mul_7 -->
<g id="node14" class="node">
<title>op_mul_7</title>
<polygon fill="#d8bfd8" stroke="none" points="241.75,-74.5 241.75,-127.5 317.5,-127.5 317.5,-74.5 241.75,-74.5"/>
<polygon fill="none" stroke="black" points="241.75,-101 241.75,-127.5 260,-127.5 260,-101 241.75,-101"/>
<text xml:space="preserve" text-anchor="start" x="246.75" y="-109.2" font-family="Times New Roman,serif" font-size="14.00">●</text>
<polygon fill="none" stroke="black" points="260,-74.5 260,-127.5 299.25,-127.5 299.25,-74.5 260,-74.5"/>
<text xml:space="preserve" text-anchor="start" x="265" y="-95.95" font-family="Times New Roman,serif" font-size="14.00"> mul </text>
<polygon fill="none" stroke="black" points="299.25,-74.5 299.25,-127.5 317.5,-127.5 317.5,-74.5 299.25,-74.5"/>
<text xml:space="preserve" text-anchor="start" x="304.25" y="-95.95" font-family="Times New Roman,serif" font-size="14.00">●</text>
<polygon fill="none" stroke="black" points="241.75,-74.5 241.75,-101 260,-101 260,-74.5 241.75,-74.5"/>
<text xml:space="preserve" text-anchor="start" x="247.5" y="-82.7" font-family="Times New Roman,serif" font-size="14.00">1</text>
</g>
<!-- struct_cluster_MovingAverage3_z1&#45;&gt;op_mul_7 -->
<g id="edge1" class="edge">
<title>struct_cluster_MovingAverage3_z1:out&#45;&gt;op_mul_7:in1</title>
<path fill="none" stroke="black" d="M182.5,-89C206.42,-89 211.37,-107.14 229.51,-112.67"/>
<polygon fill="black" stroke="black" points="228.86,-116.11 239.25,-114.04 229.84,-109.18 228.86,-116.11"/>
</g>
<!-- op_mul_8 -->
<g id="node15" class="node">
<title>op_mul_8</title>
<polygon fill="#d8bfd8" stroke="none" points="495,-20.5 495,-73.5 570.75,-73.5 570.75,-20.5 495,-20.5"/>
<polygon fill="none" stroke="black" points="495,-47 495,-73.5 513.25,-73.5 513.25,-47 495,-47"/>
<text xml:space="preserve" text-anchor="start" x="500" y="-55.2" font-family="Times New Roman,serif" font-size="14.00">●</text>
<polygon fill="none" stroke="black" points="513.25,-20.5 513.25,-73.5 552.5,-73.5 552.5,-20.5 513.25,-20.5"/>
<text xml:space="preserve" text-anchor="start" x="518.25" y="-41.95" font-family="Times New Roman,serif" font-size="14.00"> mul </text>
<polygon fill="none" stroke="black" points="552.5,-20.5 552.5,-73.5 570.75,-73.5 570.75,-20.5 552.5,-20.5"/>
<text xml:space="preserve" text-anchor="start" x="557.5" y="-41.95" font-family="Times New Roman,serif" font-size="14.00">●</text>
<polygon fill="none" stroke="black" points="495,-20.5 495,-47 513.25,-47 513.25,-20.5 495,-20.5"/>
<text xml:space="preserve" text-anchor="start" x="500.75" y="-28.7" font-family="Times New Roman,serif" font-size="14.00">1</text>
</g>
<!-- struct_cluster_MovingAverage3_z2&#45;&gt;op_mul_8 -->
<g id="edge5" class="edge">
<title>struct_cluster_MovingAverage3_z2:out&#45;&gt;op_mul_8:in1</title>
<path fill="none" stroke="black" d="M310.25,-34C388.88,-34 409.61,-57.85 482.81,-60.08"/>
<polygon fill="black" stroke="black" points="482.44,-63.58 492.49,-60.23 482.54,-56.58 482.44,-63.58"/>
</g>
<!-- cluster_MovingAverage3__T -->
<g id="node7" class="node">
<title>cluster_MovingAverage3__T</title>
<polygon fill="none" stroke="black" points="306.63,-186 252.63,-186 252.63,-150 306.63,-150 306.63,-186"/>
<text xml:space="preserve" text-anchor="middle" x="279.63" y="-162.95" font-family="Times New Roman,serif" font-size="14.00">_T</text>
</g>
<!-- op_add_6 -->
<g id="node13" class="node">
<title>op_add_6</title>
<polygon fill="#d8bfd8" stroke="none" points="369.5,-112.5 369.5,-165.5 443,-165.5 443,-112.5 369.5,-112.5"/>
<polygon fill="none" stroke="black" points="369.5,-139 369.5,-165.5 387.75,-165.5 387.75,-139 369.5,-139"/>
<text xml:space="preserve" text-anchor="start" x="374.5" y="-147.2" font-family="Times New Roman,serif" font-size="14.00">●</text>
<polygon fill="none" stroke="black" points="387.75,-112.5 387.75,-165.5 424.75,-165.5 424.75,-112.5 387.75,-112.5"/>
<text xml:space="preserve" text-anchor="start" x="392.75" y="-133.95" font-family="Times New Roman,serif" font-size="14.00"> add </text>
<polygon fill="none" stroke="black" points="424.75,-112.5 424.75,-165.5 443,-165.5 443,-112.5 424.75,-112.5"/>
<text xml:space="preserve" text-anchor="start" x="429.75" y="-133.95" font-family="Times New Roman,serif" font-size="14.00">●</text>
<polygon fill="none" stroke="black" points="369.5,-112.5 369.5,-139 387.75,-139 387.75,-112.5 369.5,-112.5"/>
<text xml:space="preserve" text-anchor="start" x="374.5" y="-120.7" font-family="Times New Roman,serif" font-size="14.00">●</text>
</g>
<!-- cluster_MovingAverage3__T&#45;&gt;op_add_6 -->
<g id="edge9" class="edge">
<title>cluster_MovingAverage3__T&#45;&gt;op_add_6:in1</title>
<path fill="none" stroke="black" d="M306.94,-160.77C321.17,-157.37 339.4,-153.82 357.04,-152.65"/>
<polygon fill="black" stroke="black" points="357.11,-156.15 366.99,-152.3 356.87,-149.15 357.11,-156.15"/>
</g>
<!-- op_mul_1&#45;&gt;cluster_MovingAverage3__T -->
<g id="edge8" class="edge">
<title>op_mul_1:out&#45;&gt;cluster_MovingAverage3__T</title>
<path fill="none" stroke="black" d="M190.75,-156C207.31,-156 225.48,-158.12 240.97,-160.58"/>
<polygon fill="black" stroke="black" points="240.28,-164.01 250.73,-162.24 241.46,-157.11 240.28,-164.01"/>
</g>
<!-- op_bits_2 -->
<g id="node9" class="node">
<title>op_bits_2</title>
<polygon fill="#d8bfd8" stroke="none" points="871.5,-40.5 871.5,-93.5 966.75,-93.5 966.75,-40.5 871.5,-40.5"/>
<polygon fill="none" stroke="black" points="871.5,-67 871.5,-93.5 911.5,-93.5 911.5,-67 871.5,-67"/>
<text xml:space="preserve" text-anchor="start" x="887.38" y="-75.2" font-family="Times New Roman,serif" font-size="14.00">●</text>
<polygon fill="none" stroke="black" points="911.5,-40.5 911.5,-93.5 948.5,-93.5 948.5,-40.5 911.5,-40.5"/>
<text xml:space="preserve" text-anchor="start" x="916.5" y="-61.95" font-family="Times New Roman,serif" font-size="14.00"> bits </text>
<polygon fill="none" stroke="black" points="948.5,-40.5 948.5,-93.5 966.75,-93.5 966.75,-40.5 948.5,-40.5"/>
<text xml:space="preserve" text-anchor="start" x="953.5" y="-61.95" font-family="Times New Roman,serif" font-size="14.00">●</text>
<polygon fill="none" stroke="black" points="871.5,-40.5 871.5,-67 911.5,-67 911.5,-40.5 871.5,-40.5"/>
<text xml:space="preserve" text-anchor="start" x="876.5" y="-48.7" font-family="Times New Roman,serif" font-size="14.00">(7, 0)</text>
</g>
<!-- op_bits_2&#45;&gt;cluster_MovingAverage3_io_out -->
<g id="edge12" class="edge">
<title>op_bits_2:out&#45;&gt;cluster_MovingAverage3_io_out</title>
<path fill="none" stroke="black" d="M967.75,-67C977.91,-67 988.91,-67 999.08,-67"/>
<polygon fill="black" stroke="black" points="999.02,-70.5 1009.02,-67 999.02,-63.5 999.02,-70.5"/>
</g>
<!-- op_tail_3 -->
<g id="node10" class="node">
<title>op_tail_3</title>
<polygon fill="#d8bfd8" stroke="none" points="748.25,-53.5 748.25,-106.5 819.5,-106.5 819.5,-53.5 748.25,-53.5"/>
<polygon fill="none" stroke="black" points="748.25,-80 748.25,-106.5 766.5,-106.5 766.5,-80 748.25,-80"/>
<text xml:space="preserve" text-anchor="start" x="753.25" y="-88.2" font-family="Times New Roman,serif" font-size="14.00">●</text>
<polygon fill="none" stroke="black" points="766.5,-53.5 766.5,-106.5 801.25,-106.5 801.25,-53.5 766.5,-53.5"/>
<text xml:space="preserve" text-anchor="start" x="771.5" y="-74.95" font-family="Times New Roman,serif" font-size="14.00"> tail </text>
<polygon fill="none" stroke="black" points="801.25,-53.5 801.25,-106.5 819.5,-106.5 819.5,-53.5 801.25,-53.5"/>
<text xml:space="preserve" text-anchor="start" x="806.25" y="-74.95" font-family="Times New Roman,serif" font-size="14.00">●</text>
<polygon fill="none" stroke="black" points="748.25,-53.5 748.25,-80 766.5,-80 766.5,-53.5 748.25,-53.5"/>
<text xml:space="preserve" text-anchor="start" x="754" y="-61.7" font-family="Times New Roman,serif" font-size="14.00">1</text>
</g>
<!-- op_tail_3&#45;&gt;op_bits_2 -->
<g id="edge4" class="edge">
<title>op_tail_3:out&#45;&gt;op_bits_2:in1</title>
<path fill="none" stroke="black" d="M820.5,-80C838.38,-80 845.47,-80.16 859.14,-80.23"/>
<polygon fill="black" stroke="black" points="858.98,-83.72 868.99,-80.25 858.99,-76.72 858.98,-83.72"/>
</g>
<!-- op_add_4 -->
<g id="node11" class="node">
<title>op_add_4</title>
<polygon fill="#d8bfd8" stroke="none" points="622.75,-66.5 622.75,-119.5 696.25,-119.5 696.25,-66.5 622.75,-66.5"/>
<polygon fill="none" stroke="black" points="622.75,-93 622.75,-119.5 641,-119.5 641,-93 622.75,-93"/>
<text xml:space="preserve" text-anchor="start" x="627.75" y="-101.2" font-family="Times New Roman,serif" font-size="14.00">●</text>
<polygon fill="none" stroke="black" points="641,-66.5 641,-119.5 678,-119.5 678,-66.5 641,-66.5"/>
<text xml:space="preserve" text-anchor="start" x="646" y="-87.95" font-family="Times New Roman,serif" font-size="14.00"> add </text>
<polygon fill="none" stroke="black" points="678,-66.5 678,-119.5 696.25,-119.5 696.25,-66.5 678,-66.5"/>
<text xml:space="preserve" text-anchor="start" x="683" y="-87.95" font-family="Times New Roman,serif" font-size="14.00">●</text>
<polygon fill="none" stroke="black" points="622.75,-66.5 622.75,-93 641,-93 641,-66.5 622.75,-66.5"/>
<text xml:space="preserve" text-anchor="start" x="627.75" y="-74.7" font-family="Times New Roman,serif" font-size="14.00">●</text>
</g>
<!-- op_add_4&#45;&gt;op_tail_3 -->
<g id="edge6" class="edge">
<title>op_add_4:out&#45;&gt;op_tail_3:in1</title>
<path fill="none" stroke="black" d="M697.25,-93C715.13,-93 722.22,-93.16 735.89,-93.23"/>
<polygon fill="black" stroke="black" points="735.73,-96.72 745.74,-93.25 735.74,-89.72 735.73,-96.72"/>
</g>
<!-- op_tail_5 -->
<g id="node12" class="node">
<title>op_tail_5</title>
<polygon fill="#d8bfd8" stroke="none" points="497.25,-99.5 497.25,-152.5 568.5,-152.5 568.5,-99.5 497.25,-99.5"/>
<polygon fill="none" stroke="black" points="497.25,-126 497.25,-152.5 515.5,-152.5 515.5,-126 497.25,-126"/>
<text xml:space="preserve" text-anchor="start" x="502.25" y="-134.2" font-family="Times New Roman,serif" font-size="14.00">●</text>
<polygon fill="none" stroke="black" points="515.5,-99.5 515.5,-152.5 550.25,-152.5 550.25,-99.5 515.5,-99.5"/>
<text xml:space="preserve" text-anchor="start" x="520.5" y="-120.95" font-family="Times New Roman,serif" font-size="14.00"> tail </text>
<polygon fill="none" stroke="black" points="550.25,-99.5 550.25,-152.5 568.5,-152.5 568.5,-99.5 550.25,-99.5"/>
<text xml:space="preserve" text-anchor="start" x="555.25" y="-120.95" font-family="Times New Roman,serif" font-size="14.00">●</text>
<polygon fill="none" stroke="black" points="497.25,-99.5 497.25,-126 515.5,-126 515.5,-99.5 497.25,-99.5"/>
<text xml:space="preserve" text-anchor="start" x="503" y="-107.7" font-family="Times New Roman,serif" font-size="14.00">1</text>
</g>
<!-- op_tail_5&#45;&gt;op_add_4 -->
<g id="edge14" class="edge">
<title>op_tail_5:out&#45;&gt;op_add_4:in1</title>
<path fill="none" stroke="black" d="M569.5,-126C590.06,-126 595.37,-112.46 610.69,-107.8"/>
<polygon fill="black" stroke="black" points="610.83,-111.31 620.25,-106.46 609.86,-104.38 610.83,-111.31"/>
</g>
<!-- op_add_6&#45;&gt;op_tail_5 -->
<g id="edge13" class="edge">
<title>op_add_6:out&#45;&gt;op_tail_5:in1</title>
<path fill="none" stroke="black" d="M444,-139C462.87,-139 470.24,-139.17 484.79,-139.23"/>
<polygon fill="black" stroke="black" points="484.73,-142.73 494.74,-139.25 484.74,-135.73 484.73,-142.73"/>
</g>
<!-- op_mul_7&#45;&gt;op_add_6 -->
<g id="edge3" class="edge">
<title>op_mul_7:out&#45;&gt;op_add_6:in2</title>
<path fill="none" stroke="black" d="M318.5,-101C338.84,-101 342.77,-117.65 357.21,-123.64"/>
<polygon fill="black" stroke="black" points="356.54,-127.07 367.01,-125.47 357.83,-120.19 356.54,-127.07"/>
</g>
<!-- op_mul_8&#45;&gt;op_add_4 -->
<g id="edge10" class="edge">
<title>op_mul_8:out&#45;&gt;op_add_4:in2</title>
<path fill="none" stroke="black" d="M561.63,-74.5C561.63,-85.24 591.58,-82.15 610.4,-80.49"/>
<polygon fill="black" stroke="black" points="610.49,-83.99 620.24,-79.85 610.03,-77 610.49,-83.99"/>
</g>
</g>
</svg>
